<?xml version="1.0" encoding="utf-8"?>
<!-- Generator: Adobe Illustrator 15.0.0, SVG Export Plug-In . SVG Version: 6.00 Build 0)  -->
<!DOCTYPE svg PUBLIC "-//W3C//DTD SVG 1.1//EN" "http://www.w3.org/Graphics/SVG/1.1/DTD/svg11.dtd">
<svg version="1.1" id="Layer_1" xmlns="http://www.w3.org/2000/svg" xmlns:xlink="http://www.w3.org/1999/xlink" x="0px" y="0px"
	 width="64px" height="64px" viewBox="0 0 64 64" enable-background="new 0 0 64 64" xml:space="preserve">
<g>
	<g>
		<path fill="#231F20" d="M56.197,33.361l-0.509-0.126l-1.869,5.253l-2.431-0.863l1.836-5.156l-0.527-0.199
			c-1.444-0.549-2.909-1.235-4.356-2.037l-0.502-0.275l-2.464,4.357l-2.248-1.269l2.518-4.454l-0.432-0.301
			c-1.604-1.117-3.155-2.393-4.612-3.794l-0.405-0.39l-3.554,3.528l-1.822-1.833l3.586-3.556l-0.352-0.405
			c-1.252-1.461-2.392-3.017-3.388-4.625l-0.269-0.432l-4.718,2.152l-1.071-2.348l4.54-2.072l-0.259-0.531
			c-0.635-1.312-1.185-2.665-1.633-4.021l-0.165-0.501l-6.091,1.417l-0.586-2.514l6.007-1.398l-0.105-0.546
			c-0.121-0.633-0.257-1.372-0.342-2.114l-0.068-0.56l-0.562,0.052c-6.546,0.607-12.718,3.51-17.376,8.172
			c-4.659,4.655-7.561,10.828-8.172,17.378l-0.05,0.563l0.558,0.063c0.89,0.103,1.84,0.272,2.985,0.535l0.501,0.113l2.105-5.931
			l2.434,0.867l-2.065,5.808l0.542,0.192c1.474,0.531,2.918,1.172,4.297,1.903l0.495,0.266l2.746-4.862l2.247,1.269l-2.779,4.925
			l0.443,0.299c1.584,1.06,3.123,2.277,4.579,3.619l0.407,0.375l3.839-3.809l1.814,1.833l-3.838,3.813l0.365,0.408
			c1.269,1.421,2.427,2.926,3.437,4.47l0.272,0.415l4.905-2.241l1.079,2.351l-4.651,2.125l0.277,0.538
			c0.646,1.252,1.205,2.554,1.716,3.979l0.175,0.481l6.082-1.415l0.585,2.514l-5.918,1.378l0.123,0.559
			c0.239,1.052,0.408,2.015,0.519,2.945l0.066,0.558l0.561-0.054c6.552-0.607,12.729-3.51,17.384-8.168
			c4.662-4.659,7.564-10.832,8.165-17.38l0.053-0.564l-0.561-0.063C58.657,33.906,57.549,33.696,56.197,33.361z"/>
	</g>
	<g>
		<path fill="#231F20" d="M32.477,5.57l0.174,0.882l3.466-0.807l0.585,2.516l-3.384,0.784l0.206,0.604
			c0.398,1.163,0.886,2.341,1.457,3.51l0.246,0.504l4.307-1.962l1.069,2.35l-4.104,1.871l0.365,0.561
			c0.884,1.368,1.793,2.597,2.779,3.759l0.402,0.477l3.297-3.272l1.82,1.83l-3.334,3.311l0.425,0.409
			c1.309,1.245,2.653,2.361,4.001,3.32l0.519,0.372l2.261-3.996l2.248,1.267l-2.314,4.101l0.508,0.282
			c1.285,0.72,2.617,1.348,3.959,1.866l0.551,0.212l1.432-4.008l2.431,0.867l-1.396,3.925l0.625,0.149
			c0.942,0.222,1.786,0.38,2.58,0.483l0.674,0.088l-0.02-0.678c-0.22-7.247-3.158-14.059-8.275-19.18
			c-5.113-5.114-11.928-8.052-19.18-8.273l-0.675-0.02l0.084,0.667C32.314,4.749,32.399,5.166,32.477,5.57z M58.847,27.812
			c0.136,0.883,0.229,1.78,0.279,2.68c-0.369-0.061-0.747-0.134-1.152-0.222L58.847,27.812z M34.145,4.919l-0.591,0.136
			c-0.013-0.06-0.023-0.12-0.033-0.179C33.729,4.89,33.936,4.903,34.145,4.919z"/>
	</g>
	<g>
		<path fill="#231F20" d="M31.302,57.276l-0.126-0.571l-3.568,0.83l-0.587-2.514l3.38-0.784l-0.234-0.617
			c-0.483-1.271-0.988-2.404-1.544-3.463l-0.254-0.481l-4.181,1.905l-1.071-2.351l3.902-1.78l-0.387-0.564
			c-0.868-1.278-1.815-2.493-2.809-3.612l-0.405-0.455l-3.039,3.019l-1.823-1.83l3.042-3.021l-0.443-0.408
			c-1.249-1.149-2.58-2.212-3.957-3.151l-0.52-0.355l-1.991,3.523l-2.248-1.269l2.032-3.606l-0.523-0.275
			c-1.25-0.664-2.563-1.245-3.898-1.73l-0.548-0.202l-1.197,3.36l-2.431-0.866l1.149-3.233l-0.643-0.14
			c-0.747-0.161-1.415-0.281-2.041-0.364l-0.671-0.093l0.018,0.682c0.226,7.246,3.167,14.056,8.282,19.177
			c5.12,5.12,11.929,8.059,19.173,8.274l0.678,0.021l-0.09-0.671C31.64,58.939,31.504,58.183,31.302,57.276z"/>
	</g>
</g>
</svg>
