<?xml version="1.0" encoding="utf-8"?>
<!-- Generator: Adobe Illustrator 15.0.0, SVG Export Plug-In . SVG Version: 6.00 Build 0)  -->
<!DOCTYPE svg PUBLIC "-//W3C//DTD SVG 1.1//EN" "http://www.w3.org/Graphics/SVG/1.1/DTD/svg11.dtd">
<svg version="1.1" id="Layer_1" xmlns="http://www.w3.org/2000/svg" xmlns:xlink="http://www.w3.org/1999/xlink" x="0px" y="0px"
	 width="26px" height="26px" viewBox="0 0 26 26" enable-background="new 0 0 26 26" xml:space="preserve">
<g>
	<circle fill="#000000" cx="3" cy="3" r="2.813"/>
</g>
<rect fill="none" width="26" height="26"/>
<g>
	<path fill="#000000" d="M4.668,11.8l9.561,9.56c-1.177-0.019-2.352-0.225-3.461-0.667c-0.445-0.084-2.235-0.374-2.918,0.309
		c-1.563,1.563-2.991,3.697-3.773,4.479c-0.781,0.781-1.89,0.456-2.938-0.592c-1.049-1.049-1.35-2.18-0.592-2.938
		s2.916-2.209,4.48-3.773c0.716-0.717,0.344-2.699,0.287-2.979C4.887,14.108,4.688,12.955,4.668,11.8z M22.058,3.969
		c-4.649-4.65-10.759-3.023-14.563,0.782C6.086,6.158,5.201,7.889,4.836,9.703l11.485,11.486c1.814-0.365,3.546-1.248,4.953-2.656
		C25.08,14.727,26.71,8.62,22.058,3.969z"/>
</g>
</svg>
