<?xml version="1.0" encoding="iso-8859-1"?>
<!-- Generator: Adobe Illustrator 16.0.4, SVG Export Plug-In . SVG Version: 6.00 Build 0)  -->
<!DOCTYPE svg PUBLIC "-//W3C//DTD SVG 1.1//EN" "http://www.w3.org/Graphics/SVG/1.1/DTD/svg11.dtd">
<svg version="1.1" id="Capa_1" xmlns="http://www.w3.org/2000/svg" xmlns:xlink="http://www.w3.org/1999/xlink" x="0px" y="0px"
	 width="43.646px" height="26.616px" viewBox="0 0 43.646 26.616" style="enable-background:new 0 0 43.646 26.616;"
	 xml:space="preserve">
<g>
	<path style="fill:#262626;" d="M4.184,17.964l1.459,1.703h0.006l0.486,4.743h0.254l0.488-4.743h0.004l1.46-1.703
		C8.341,17.964,6.026,18.328,4.184,17.964z"/>
	<path style="fill:#262626;" d="M6.263,5.236C2.806,5.236,0,8.04,0,11.499c0,3.458,2.806,6.262,6.263,6.262s6.262-2.804,6.262-6.262
		C12.524,8.04,9.72,5.236,6.263,5.236z M10.895,11.734c0.393,0,0.715-0.292,0.769-0.669c0.008,0.036,0.013,0.072,0.013,0.108
		c0,0.419-0.341,0.759-0.761,0.759c-0.408,0-0.739-0.323-0.757-0.729C10.266,11.512,10.551,11.734,10.895,11.734z M10.69,12.497
		c0.006,0.036,0.011,0.072,0.011,0.11c0,0.417-0.339,0.758-0.759,0.758c-0.406,0-0.738-0.322-0.755-0.729
		c0.103,0.309,0.394,0.531,0.736,0.531C10.314,13.167,10.641,12.875,10.69,12.497z M8.854,11.734c0.393,0,0.715-0.292,0.768-0.669
		c0.006,0.036,0.012,0.072,0.012,0.108c0,0.419-0.344,0.759-0.761,0.759c-0.408,0-0.738-0.323-0.757-0.729
		C8.223,11.512,8.509,11.734,8.854,11.734z M8.411,14.23c0.394,0,0.714-0.292,0.768-0.67c0.007,0.035,0.009,0.072,0.009,0.11
		c0,0.418-0.339,0.758-0.759,0.758c-0.406,0-0.738-0.324-0.755-0.729C7.776,14.008,8.066,14.23,8.411,14.23z M7.674,16.451
		c-0.406,0-0.74-0.323-0.755-0.728c0.103,0.307,0.393,0.53,0.733,0.53c0.393,0,0.715-0.291,0.767-0.669
		c0.008,0.036,0.014,0.072,0.014,0.109C8.433,16.112,8.093,16.451,7.674,16.451z M9.403,15.583c-0.41,0-0.74-0.325-0.756-0.728
		c0.102,0.308,0.39,0.531,0.736,0.531c0.391,0,0.714-0.292,0.763-0.671c0.01,0.036,0.012,0.072,0.012,0.11
		C10.158,15.244,9.822,15.583,9.403,15.583z M10.915,14.233c-0.408,0-0.739-0.324-0.757-0.728c0.107,0.308,0.393,0.531,0.736,0.531
		c0.393,0,0.715-0.292,0.769-0.671c0.008,0.035,0.013,0.072,0.013,0.109C11.676,13.894,11.335,14.233,10.915,14.233z"/>
	<path style="fill:#262626;" d="M31.242,17.31H11.255c0,5.139,4.725,9.306,10.557,9.306c5.139,0,9.414-3.236,10.361-7.521
		l2.216-3.124h-2.197L31.242,17.31z M21.878,24.753c-5.931-0.277-7.983-4.572-8.068-4.754l0.732-0.341
		c0.078,0.165,1.949,4.032,7.372,4.287L21.878,24.753z"/>
	<polygon style="fill:#262626;" points="41.297,0 32.686,15.272 34.883,15.272 43.646,0.017 	"/>
</g>
<g>
</g>
<g>
</g>
<g>
</g>
<g>
</g>
<g>
</g>
<g>
</g>
<g>
</g>
<g>
</g>
<g>
</g>
<g>
</g>
<g>
</g>
<g>
</g>
<g>
</g>
<g>
</g>
<g>
</g>
</svg>
