<?xml version="1.0" encoding="iso-8859-1"?>
<!-- Generator: Adobe Illustrator 16.0.4, SVG Export Plug-In . SVG Version: 6.00 Build 0)  -->
<!DOCTYPE svg PUBLIC "-//W3C//DTD SVG 1.1//EN" "http://www.w3.org/Graphics/SVG/1.1/DTD/svg11.dtd">
<svg version="1.1" id="Capa_1" xmlns="http://www.w3.org/2000/svg" xmlns:xlink="http://www.w3.org/1999/xlink" x="0px" y="0px"
	 width="42.772px" height="50.495px" viewBox="0 0 42.772 50.495" style="enable-background:new 0 0 42.772 50.495;"
	 xml:space="preserve">
<g>
	<path style="fill:#262626;" d="M30.116,6.997c-0.053-1.773-0.751-3.534-2.106-4.888C26.655,0.754,24.896,0.054,23.12,0
		c0.202,1.55,1.024,3.216,2.405,4.594C26.906,5.977,28.568,6.797,30.116,6.997z"/>
	<polygon style="fill:#262626;" points="10.141,7.971 13.203,7.971 12.055,6.463 8.996,6.463 	"/>
	<polygon style="fill:#262626;" points="24.419,15.998 23.266,14.492 20.058,14.492 21.206,15.998 	"/>
	<polygon style="fill:#262626;" points="9.69,15.998 8.546,14.492 5.469,14.492 6.616,15.998 	"/>
	<polygon style="fill:#262626;" points="16.246,15.998 19.316,15.998 18.168,14.492 15.101,14.492 	"/>
	<polygon style="fill:#262626;" points="14.362,15.998 13.218,14.492 10.431,14.492 11.574,15.998 	"/>
	<polygon style="fill:#262626;" points="13.235,12.038 16.302,12.038 15.153,10.53 12.089,10.53 	"/>
	<polygon style="fill:#262626;" points="11.352,12.038 10.205,10.53 7.42,10.53 8.565,12.038 	"/>
	<polygon style="fill:#262626;" points="22.097,23.693 25.174,23.693 24.026,22.185 20.95,22.185 	"/>
	<polygon style="fill:#262626;" points="16.278,22.185 17.427,23.693 20.211,23.693 19.062,22.185 	"/>
	<polygon style="fill:#262626;" points="9.442,22.185 6.237,22.185 7.396,23.693 10.597,23.693 	"/>
	<polygon style="fill:#262626;" points="11.33,22.185 12.479,23.693 15.543,23.693 14.395,22.185 	"/>
	<polygon style="fill:#262626;" points="12.529,19.732 11.384,18.227 8.313,18.227 9.462,19.732 	"/>
	<polygon style="fill:#262626;" points="19.086,19.732 22.157,19.732 21.012,18.227 17.939,18.227 	"/>
	<polygon style="fill:#262626;" points="17.199,19.732 16.054,18.227 13.268,18.227 14.414,19.732 	"/>
	<polygon style="fill:#262626;" points="6.422,18.227 3.205,18.227 4.36,19.732 7.574,19.732 	"/>
	<polygon style="fill:#262626;" points="9.358,26.253 10.514,27.762 13.698,27.762 12.549,26.253 	"/>
	<polygon style="fill:#262626;" points="17.489,26.253 14.431,26.253 15.579,27.762 18.638,27.762 	"/>
	<polygon style="fill:#262626;" points="10.431,14.492 8.565,12.038 6.678,12.038 8.546,14.492 	"/>
	<polygon style="fill:#262626;" points="16.278,22.185 14.414,19.732 12.529,19.732 14.395,22.185 	"/>
	<polygon style="fill:#262626;" points="13.268,18.227 11.574,15.998 9.69,15.998 11.384,18.227 	"/>
	<polygon style="fill:#262626;" points="15.543,23.693 17.489,26.253 19.371,26.253 17.427,23.693 	"/>
	<polygon style="fill:#262626;" points="9.462,19.732 7.574,19.732 9.442,22.185 11.33,22.185 	"/>
	<polygon style="fill:#262626;" points="10.597,23.693 12.549,26.253 14.431,26.253 12.479,23.693 	"/>
	<polygon style="fill:#262626;" points="8.313,18.227 6.616,15.998 4.726,15.998 6.422,18.227 	"/>
	<polygon style="fill:#262626;" points="24.026,22.185 25.924,22.185 24.051,19.732 22.157,19.732 	"/>
	<polygon style="fill:#262626;" points="19.316,15.998 21.012,18.227 22.903,18.227 21.206,15.998 	"/>
	<polygon style="fill:#262626;" points="15.101,14.492 13.235,12.038 11.352,12.038 13.218,14.492 	"/>
	<polygon style="fill:#262626;" points="19.062,22.185 20.95,22.185 19.086,19.732 17.199,19.732 	"/>
	<polygon style="fill:#262626;" points="20.211,23.693 22.157,26.253 24.043,26.253 22.097,23.693 	"/>
	<polygon style="fill:#262626;" points="16.054,18.227 17.939,18.227 16.246,15.998 14.362,15.998 	"/>
	<polygon style="fill:#262626;" points="12.089,10.53 10.141,7.971 8.257,7.971 10.205,10.53 	"/>
	<path style="fill:#262626;" d="M42.032,45.601l-8.832-9.96l0.024-0.019l-0.103-0.07l-2.079-2.344
		c-0.201-0.23-0.438-0.407-0.688-0.559c-1.17-1.812-2.367-4.678-2.438-8.828c0.348-1.247,0.515-2.584,0.48-3.995
		c-0.055-2.214-0.611-4.445-1.582-6.559c-0.071,0.047-0.147,0.079-0.22,0.124c0.502-0.299,0.982-0.643,1.415-1.072
		c1.237-1.236,1.93-2.813,2.08-4.429c-1.768-0.203-3.655-1.109-5.204-2.659c-1.544-1.547-2.451-3.432-2.659-5.204
		c-1.613,0.15-3.19,0.845-4.428,2.082c-0.438,0.437-0.778,0.923-1.081,1.43c-1.776-0.701-3.616-1.091-5.436-1.091
		c-2.781,0-5.307,0.883-7.297,2.547C-1.457,9.556-1.307,18.731,4.32,25.45c3.137,3.742,7.456,6.066,11.733,6.399l-0.002,0.071
		c0.062,0.002,5.49,0.304,10.337,4.838c0.076,0.118,0.156,0.24,0.256,0.352l10.984,12.396c1.076,1.216,2.934,1.324,4.153,0.247
		C42.997,48.677,43.11,46.817,42.032,45.601z M25.574,13.901c-0.187,0.077-0.379,0.145-0.569,0.207
		C25.195,14.049,25.388,13.976,25.574,13.901z M17.04,29.683l-1.461-1.921h-1.881l1.303,1.709c-2.35-0.429-4.674-1.539-6.706-3.218
		h1.063l-1.962-2.56H5.781c-0.391-0.49-0.749-0.995-1.079-1.509h1.535L4.36,19.732H3.407c-0.524-1.237-0.877-2.495-1.053-3.734
		h2.371l-1.148-1.506H2.224c-0.014-0.566,0.021-1.119,0.079-1.664l1.274,1.664h1.892l-1.866-2.454H2.42
		c0.073-0.397,0.174-0.79,0.292-1.169l0.891,1.169h3.075L5.531,10.53H2.822c0.271-0.767,0.623-1.488,1.077-2.146l1.632,2.146H7.42
		l-1.947-2.56H4.218C4.426,7.706,4.65,7.448,4.893,7.206l0.58,0.765h2.784L7.112,6.463H5.739C7.134,5.406,8.834,4.8,10.714,4.701
		l1.341,1.762h1.88l-1.29-1.694c1.086,0.13,2.174,0.418,3.239,0.835c-0.072,0.31-0.139,0.622-0.169,0.936
		c1.772,0.207,3.656,1.113,5.205,2.657c1.547,1.549,2.456,3.437,2.658,5.206c0.349-0.031,0.694-0.103,1.037-0.185
		c-0.343,0.085-0.688,0.153-1.037,0.185l-1.119-0.96c-0.358-1.25-1.087-2.516-2.178-3.605c-1.379-1.379-3.043-2.201-4.594-2.403
		c0.019,0.575,0.13,1.147,0.284,1.71c0-0.007-0.002-0.012-0.002-0.016l-0.885-1.157h-1.882l1.95,2.56h1.367
		c0-0.006,0-0.006-0.004-0.012c0.004,0.006,0.004,0.006,0.006,0.012h-0.002c0.002,0.004,0.008,0.01,0.01,0.016
		c0.272,0.521,0.608,1.015,1.021,1.474c0.004,0.006,0.01,0.013,0.015,0.019l0,0c0.082,0.092,0.146,0.195,0.233,0.281
		c0.263,0.266,0.551,0.481,0.841,0.693c-0.292-0.206-0.578-0.428-0.841-0.69c-0.088-0.089-0.151-0.192-0.233-0.284h-1.264
		l1.866,2.454h1.89l-0.833-1.09c-0.004-0.002-0.01-0.009-0.012-0.011c1.072,0.64,2.262,1.004,3.471,1.038
		c-0.042-0.324-0.126-0.658-0.225-0.987l0.807,1.05h1.657c0.527,1.219,0.896,2.471,1.086,3.734h-3.105l1.147,1.506h2.105
		c0,0.05,0.007,0.1,0.007,0.149c0.023,0.8-0.033,1.568-0.158,2.303h-0.081l0.064,0.086c-0.272,1.506-0.849,2.854-1.697,3.982h-0.248
		l0.12,0.156c-0.316,0.398-0.661,0.771-1.045,1.11l-0.961-1.267h-2.786l1.148,1.509h2.314c-1.563,1.257-3.539,1.925-5.729,1.925
		C17.084,29.687,17.061,29.683,17.04,29.683z M16.218,4.546c0,0,0,0.004-0.004,0.01C16.218,4.55,16.218,4.546,16.218,4.546z
		 M26.895,32.956c-0.582,0.515-0.904,1.208-0.971,1.927c-2.146-1.713-4.295-2.712-6.039-3.287c1.684-0.39,3.217-1.136,4.516-2.226
		c1.058-0.886,1.912-1.957,2.562-3.164c0.312,2.535,1.031,4.52,1.834,6.024C28.118,32.239,27.441,32.474,26.895,32.956z"/>
</g>
<g>
</g>
<g>
</g>
<g>
</g>
<g>
</g>
<g>
</g>
<g>
</g>
<g>
</g>
<g>
</g>
<g>
</g>
<g>
</g>
<g>
</g>
<g>
</g>
<g>
</g>
<g>
</g>
<g>
</g>
</svg>
