<?xml version="1.0" encoding="utf-8"?>
<!-- Generator: Adobe Illustrator 17.0.0, SVG Export Plug-In . SVG Version: 6.00 Build 0)  -->
<!DOCTYPE svg PUBLIC "-//W3C//DTD SVG 1.1//EN" "http://www.w3.org/Graphics/SVG/1.1/DTD/svg11.dtd">
<svg version="1.1" id="Capa_1" xmlns="http://www.w3.org/2000/svg" xmlns:xlink="http://www.w3.org/1999/xlink" x="0px" y="0px"
	 width="72px" height="72px" viewBox="0 0 72 72" enable-background="new 0 0 72 72" xml:space="preserve">
<g>
	<path fill="#0E0F0F" d="M15.089,62.883c7.862-1.059,12.875-6.241,14.965-13.062c0.292-0.003,0.574-0.025,0.846-0.069
		c2.102,4.64,2.013,9.48-2.039,13.765c-2.749,2.907,1.486,7.478,4.25,4.553c6.536-6.919,6.854-15.655,2.153-23.411
		c0.75-5.276,0.392-10.82-1.344-15.88c0.167-0.221,0.318-0.472,0.437-0.759c2.384-5.709,4.328-11.5,5.92-17.477
		c0.104-0.385,0.134-0.75,0.11-1.09c0.715,0.65,1.653,1.061,2.693,1.097c2.331,0.081,4.288-1.745,4.366-4.077
		c0.08-2.33-1.743-4.284-4.076-4.364c-2.331-0.08-4.287,1.745-4.366,4.076c-0.012,0.354,0.025,0.698,0.096,1.029
		c-1.582-1.134-4.128-0.946-4.769,1.47C32.916,14,31.219,19.166,29.185,24.26c-0.567-0.062-1.167-0.03-1.796,0.118
		c-1.006,0.24-1.972,0.854-2.724,1.674c-5.932,2.579-11.55,7.19-8.902,14.422c0.585,1.59,1.956,2.732,3.756,2.305
		c1.504-0.36,2.889-2.157,2.303-3.755c-0.592-1.615-0.838-3.15,0.528-4.45c0.565-0.537,1.184-0.999,1.836-1.41
		c0.937,3.677,1.029,7.386,0.482,11.228c-0.056,0.385-0.046,0.762,0.012,1.131c-0.906,6.081-4.393,10.407-11.043,11.3
		C9.667,57.36,11.143,63.415,15.089,62.883z"/>
	<circle fill="#0E0F0F" cx="24.804" cy="18.602" r="5.347"/>
	<path fill="#0E0F0F" d="M62.076,9.866H46.945l0.088,0.269l1.728,8.876l-0.021,0.081l0.039,0.009l1.202,6.181h9.099L62.683,10H62.68
		l0.034-0.133H62.12l-0.039-0.009L62.076,9.866z M60.113,18.196l-0.52-1.255l1.281-1.972L60.113,18.196z M51.235,19.013
		l-1.275-2.098l1.29-2.122l0.009,0.016l0.026-0.046l1.268,2.084L51.235,19.013z M52.83,17.291l1.365,2.243l-1.301,2.135
		l-1.363-2.243L52.83,17.291z M51.56,14.312l1.293-2.125l1.311,2.156l-1.293,2.126L51.56,14.312z M54.437,14.793l0.009,0.016
		l0.027-0.046l1.266,2.082l-1.318,2.168l-1.275-2.098L54.437,14.793z M56.038,17.254l1.341,2.205l-1.299,2.135l-1.341-2.205
		L56.038,17.254z M54.747,14.313l1.315-2.162l1.336,2.193l-1.315,2.164L54.747,14.313z M57.67,14.792l0.008,0.016l0.027-0.046
		l1.268,2.084l-1.32,2.168l-1.275-2.098L57.67,14.792z M57.98,14.312l1.299-2.135l1.38,2.268l-1.341,2.064L57.98,14.312z
		 M57.925,19.465l1.314-2.158l0.69,1.667l-0.644,2.729L57.925,19.465z M57.863,24.66l1.187-1.952l-0.46,1.952H57.863z
		 M57.608,24.176l-1.276-2.097l1.319-2.168l1.276,2.098L57.608,24.176z M54.722,24.66l1.318-2.166l1.319,2.166H54.722z
		 M54.468,24.176l-1.275-2.097l1.318-2.168l1.276,2.098L54.468,24.176z M51.491,24.66l1.364-2.241l1.362,2.241H51.491z
		 M50.265,23.483l0.717,1.177h-0.487L50.265,23.483z M49.987,22.037l1.292-2.125l1.277,2.098l-1.318,2.168l-1.228-2.016
		L49.987,22.037z M49.332,18.679l0.348-1.327l1.304,2.146l-1.13,1.859L49.332,18.679z M48.808,15.984l0.494,0.958l-0.177,0.677
		L48.808,15.984z M49.228,11.715l-0.946,1.556l-0.304-1.556C47.978,11.715,49.228,11.715,49.228,11.715z M49.575,12.041l1.402,2.303
		l-1.346,2.214l-1.141-2.206l-0.077-0.4L49.575,12.041z M49.869,11.715l-0.152,0.093l0.057-0.092h0.095V11.715z M52.593,11.715
		l-1.308,2.148l-0.008-0.015l-0.027,0.046l-1.326-2.179C49.924,11.715,52.593,11.715,52.593,11.715z M53.055,11.715l-0.125,0.074
		l-0.125-0.074H53.055z M55.782,11.714l-1.308,2.149l-0.008-0.015l-0.028,0.046l-1.324-2.182l0,0h2.668V11.714z M56.288,11.716
		l-0.148,0.089l-0.149-0.089H56.288z M59.012,11.716l-1.306,2.148l-0.009-0.015l-0.027,0.046l-1.326-2.179
		C56.345,11.716,59.012,11.716,59.012,11.716z M59.49,11.716l-0.133,0.08l-0.132-0.08H59.49z M61.642,11.716l-0.519,2.2
		l-0.086-0.055L60.94,14.01l-1.394-2.294C59.544,11.716,61.642,11.716,61.642,11.716z"/>
</g>
<path fill="#231F20" d="M49.04,49.059v21.502h21.502V49.059H49.04z M60.093,65.81c-3.422,0-5.469-2.718-5.469-5.98
	s2.047-5.98,5.469-5.98c2.575,0.016,4.605,1.439,4.846,3.901H62.94V57.75c-0.336-1.311-1.183-2.271-2.847-2.271
	c-2.446,0-3.47,2.159-3.47,4.35c0,2.191,1.023,4.35,3.47,4.35c1.775,0,2.751-1.327,2.911-2.99h1.95
	C64.795,63.923,62.859,65.81,60.093,65.81z"/>
</svg>
