<?xml version="1.0" encoding="utf-8"?>
<!-- Generator: Adobe Illustrator 17.0.0, SVG Export Plug-In . SVG Version: 6.00 Build 0)  -->
<!DOCTYPE svg PUBLIC "-//W3C//DTD SVG 1.1//EN" "http://www.w3.org/Graphics/SVG/1.1/DTD/svg11.dtd">
<svg version="1.1" id="Capa_1" xmlns="http://www.w3.org/2000/svg" xmlns:xlink="http://www.w3.org/1999/xlink" x="0px" y="0px"
	 width="72px" height="72px" viewBox="-14.177 -22.692 72 72" enable-background="new -14.177 -22.692 72 72" xml:space="preserve">
<g>
	<path d="M21.887-16.818c16.51,0.057,29.875,13.433,29.885,29.91c0.011,16.492-13.615,30.083-29.989,29.913
		C5.178,42.833-8.157,29.44-8.05,13.042C-7.942-3.509,5.459-16.875,21.887-16.818z M39.925,8.509
		c0.023-6.817-5.54-12.402-12.382-12.431c-6.81-0.029-12.455,5.537-12.504,12.33c-0.049,6.817,5.612,12.493,12.456,12.49
		C34.336,20.893,39.902,15.346,39.925,8.509z"/>
	<path d="M22.516,12.3c0.234-0.777,0.438-1.565,0.713-2.327c0.232-0.641,0.229-1.129-0.382-1.593
		c-3.371-2.56-3.027-6.769,0.727-8.675c1.514-0.769,3.132-1.23,4.866-0.868c2.954,0.617,4.6,3.412,3.62,6.272
		c-0.344,1.005,0.145,1.421,0.852,1.897c2.299,1.549,3.371,3.853,2.64,6.229c-0.339,1.101-1.058,2.202-1.888,3.013
		c-2.094,2.046-5.991,2.571-8.171,1.298C23.713,16.507,22.574,14.418,22.516,12.3z M29.267,9.074
		c-1.484-0.036-2.862,1.116-2.903,2.426c-0.059,1.876,1.186,3.48,2.704,3.484c1.473,0.004,2.842-1.18,2.864-2.476
		C31.961,10.734,30.7,9.109,29.267,9.074z M24.199,4.15c0.001,1.408,0.99,2.51,2.238,2.493c1.417-0.02,2.504-0.996,2.509-2.254
		c0.006-1.398-0.995-2.5-2.249-2.477C25.267,1.938,24.198,2.896,24.199,4.15z"/>
</g>
</svg>
