<?xml version="1.0" encoding="utf-8"?>
<!-- Generator: Adobe Illustrator 17.0.0, SVG Export Plug-In . SVG Version: 6.00 Build 0)  -->
<!DOCTYPE svg PUBLIC "-//W3C//DTD SVG 1.1//EN" "http://www.w3.org/Graphics/SVG/1.1/DTD/svg11.dtd">
<svg version="1.1" id="Capa_1" xmlns="http://www.w3.org/2000/svg" xmlns:xlink="http://www.w3.org/1999/xlink" x="0px" y="0px"
	 width="72px" height="72px" viewBox="-20 -20 72 72" enable-background="new -20 -20 72 72" xml:space="preserve">
<g>
	<path d="M-14.056,30.264l-1.197-2.158c-1.535,9.666-0.989,17.639,0.093,18.721c1.082,1.082,9.055,1.625,18.721,0.093
		c-0.696-0.386-1.413-0.782-2.155-1.197C-4.085,42.673-11.006,35.75-14.056,30.264z"/>
	<path d="M20.175-10.592l-2.99-1.994C10.191-10.378,3.274-6.942-1.909-1.758c-5.181,5.181-8.62,12.1-10.826,19.094
		c0.64,0.961,1.305,1.959,1.992,2.99C-5.865,27.64,4.025,37.532,11.341,42.41l2.99,1.992c6.994-2.208,13.909-5.643,19.094-10.826
		s8.617-12.1,10.826-19.094c-0.643-0.963-1.305-1.961-1.992-2.99C37.381,4.176,27.489-5.714,20.175-10.592z M28.362,10.845
		c-0.431,0.431-0.996,0.647-1.561,0.647s-1.131-0.216-1.561-0.647l-0.647-0.647l-1.294,1.294l0.647,0.647
		c0.864,0.863,0.864,2.259,0,3.123c-0.431,0.431-0.996,0.647-1.561,0.647s-1.131-0.216-1.561-0.647l-0.647-0.647l-1.294,1.294
		l0.647,0.647c0.864,0.864,0.864,2.259,0,3.123c-0.431,0.431-0.996,0.647-1.561,0.647s-1.131-0.216-1.561-0.647l-0.647-0.647
		l-1.294,1.294l0.647,0.647c0.863,0.864,0.863,2.259,0,3.123c-0.431,0.431-0.996,0.647-1.561,0.647s-1.131-0.216-1.561-0.647
		l-0.647-0.647l-1.294,1.294l0.647,0.647c0.863,0.864,0.863,2.259,0,3.123c-0.431,0.431-0.996,0.647-1.561,0.647
		c-0.565,0-1.131-0.216-1.561-0.647l-4.417-4.417c-0.863-0.864-0.863-2.259,0-3.123s2.259-0.864,3.123,0l0.647,0.647l1.294-1.294
		l-0.647-0.647c-0.863-0.864-0.863-2.259,0-3.123c0.863-0.863,2.259-0.863,3.123,0l0.647,0.647l1.294-1.294l-0.647-0.647
		c-0.863-0.863-0.863-2.259,0-3.123c0.863-0.864,2.259-0.863,3.123,0l0.647,0.647l1.294-1.294l-0.647-0.647
		c-0.863-0.863-0.863-2.259,0-3.123c0.864-0.863,2.259-0.863,3.123,0l0.647,0.647l1.294-1.294l-0.647-0.647
		c-0.864-0.863-0.864-2.259,0-3.123s2.259-0.863,3.123,0l4.417,4.417C29.225,8.586,29.225,9.982,28.362,10.845z"/>
	<path d="M46.676-15.009c-1.082-1.082-9.055-1.628-18.721-0.093c0.698,0.386,1.416,0.784,2.158,1.197
		c5.486,3.05,12.409,9.971,15.459,15.459l1.197,2.155C48.302-5.955,47.758-13.927,46.676-15.009z"/>
</g>
</svg>
