<?xml version="1.0" encoding="utf-8"?>
<!-- Generator: Adobe Illustrator 17.0.0, SVG Export Plug-In . SVG Version: 6.00 Build 0)  -->
<!DOCTYPE svg PUBLIC "-//W3C//DTD SVG 1.1//EN" "http://www.w3.org/Graphics/SVG/1.1/DTD/svg11.dtd">
<svg version="1.1" id="Layer_1" xmlns="http://www.w3.org/2000/svg" xmlns:xlink="http://www.w3.org/1999/xlink" x="0px" y="0px"
	 width="72px" height="72px" viewBox="-4 -4 72 72" enable-background="new -4 -4 72 72" xml:space="preserve">
<g>
	<path fill="#0E0F0F" d="M9.76,11.533c0.256,0.175,0.543,0.289,0.86,0.342c0.079,0.014,0.163,0.01,0.243,0.015
		c-0.001,0.802,0.184,1.813,1.016,2.379c0.256,0.175,0.542,0.289,0.86,0.342c1.218,0.208,2.914-0.466,5.226-2.061
		c6.433-4.438,7.281-5.587,8.029-6.6c0.08-0.109,0.16-0.214,0.244-0.324c0.665-0.842,0.647-2.227-0.042-3.154
		c-0.227-0.305-0.726-0.812-1.597-0.972c0.025-0.617-0.144-1.26-0.52-1.765c-0.381-0.512-1.526-1.599-3.919-0.651
		c-0.071,0.027-0.127,0.073-0.182,0.116c-0.769-0.493-1.647-0.843-2.605-1.005c-3.825-0.651-7.466,1.932-8.117,5.758
		C9.053,5.148,9.165,6.326,9.533,7.399C9.212,7.444,8.947,7.67,8.871,8.002C8.81,8.262,8.329,10.559,9.76,11.533z M12.77,12.958
		c-0.289-0.195-0.343-0.799-0.308-1.318c0.186-0.063,0.38-0.132,0.58-0.218c0.607,0.305,1.268,0.528,1.973,0.647
		c0.21,0.035,0.419,0.057,0.628,0.075C13.565,13.331,12.896,13.043,12.77,12.958z M22.348,6.179
		c-0.096,0.566-0.272,1.098-0.505,1.595c-1.075,0.846-2.584,1.955-4.78,3.47c-0.043,0.029-0.082,0.054-0.127,0.084
		c-0.582,0.071-1.184,0.062-1.788-0.041c-0.408-0.07-0.798-0.18-1.17-0.32c0.572-0.31,1.19-0.688,1.869-1.155
		c3.681-2.54,5.529-4,6.581-4.976C22.447,5.276,22.425,5.725,22.348,6.179z M23.129,6.312c0.128-0.748,0.129-1.489,0.023-2.203
		c0.315-0.346,0.524-0.628,0.723-0.897c0.043-0.058,0.089-0.116,0.132-0.176c0.356-0.003,0.698,0.086,0.914,0.38
		c0.285,0.382,0.272,0.972,0.071,1.226c-0.096,0.123-0.185,0.242-0.276,0.365c-0.314,0.428-0.674,0.91-1.697,1.801
		C23.061,6.642,23.102,6.48,23.129,6.312z M22.804,0.679c0.196,0.263,0.243,0.623,0.19,0.907c-0.203,0.052-0.414,0.119-0.641,0.205
		c-0.28-0.51-0.601-0.997-0.997-1.425C21.882,0.245,22.478,0.24,22.804,0.679z M21.594,2.006c0.08,0.137,0.133,0.289,0.201,0.433
		c-0.022,0.134-0.022,0.274,0.033,0.409c0.03,0.08,0.082,0.142,0.133,0.205c-0.802,0.875-2.431,2.289-7.019,5.454
		c-1.152,0.794-2.006,1.25-2.64,1.506c-0.377-0.301-0.714-0.65-1.012-1.028C11.291,8.985,21.594,2.006,21.594,2.006z M11.363,10.235
		c-0.029,0.018-0.054,0.041-0.082,0.062c-0.381,0.042-0.57-0.037-0.628-0.076c-0.267-0.181-0.334-0.715-0.313-1.205
		C10.631,9.458,10.977,9.867,11.363,10.235z"/>
	<path fill="#0E0F0F" d="M50.911,58.083L41.354,32.52c0.314-1.577-0.213-3.342-1.588-4.241l-2.206-5.903
		c1.721-0.014,3.584-1.112,3.874-2.891c0.683-4.193,0.898-9.847-3.661-12.022c-4.379-2.086-9.335,0.199-13.267,2.256
		c-0.569,0.298-1.003,0.666-1.318,1.078c-1.102,0.448-2.086,1.178-2.767,2.148c-0.582,0.285-1.123,0.731-1.568,1.371
		c-4.07,5.843-2.083,11.089,2.193,14.914c-0.018,1.989-0.151,3.993-0.409,6.031c-0.048,0.385-0.039,0.764,0.011,1.131
		c-4.956,6.405-9.597,13.092-15.266,18.888c-3.578,3.657,2.026,9.267,5.607,5.607c5.892-6.025,10.671-13.012,15.852-19.645
		c0.027-0.001,0.053-0.003,0.08-0.004c0.859,5.066-1.142,9.739-6.117,13.421c-4.061,3.006-0.114,9.895,4.003,6.848
		c9.151-6.776,12.496-16.358,8.616-26.324c1.461,0.29,2.878,0.441,4.186,0.432c0.929-0.006,1.687-0.277,2.281-0.709l8.641,26.351
		H58.84l1.983-3.173C60.823,58.083,50.911,58.083,50.911,58.083z M33.795,14.173C33.748,14.101,33.754,14.083,33.795,14.173z
		 M32.927,26.937c-0.123-3.919-0.671-7.812-1.607-11.679c0.319-0.125,0.642-0.241,0.972-0.348c0.132-0.043,1.214-0.286,1.245-0.327
		c0.101,0.001,0.238,0.006,0.374,0.013c0.005,0.024,0.008,0.042,0.013,0.06c0.015,0.217,0.018,0.434,0.02,0.652h-0.48L33.89,16.6
		c-0.027,0.26-0.06,0.518-0.101,0.776c-0.291,1.794,0.29,3.576,1.821,4.466l1.915,5.838C36.367,27.678,34.688,27.422,32.927,26.937z
		"/>
	<path fill="#0E0F0F" d="M35.508,62.247h7.652v3.567h-7.652V62.247z"/>
</g>
</svg>
