<?xml version="1.0" encoding="utf-8"?>
<!-- Generator: Adobe Illustrator 17.0.0, SVG Export Plug-In . SVG Version: 6.00 Build 0)  -->
<!DOCTYPE svg PUBLIC "-//W3C//DTD SVG 1.1//EN" "http://www.w3.org/Graphics/SVG/1.1/DTD/svg11.dtd">
<svg version="1.1" id="Layer_1" xmlns="http://www.w3.org/2000/svg" xmlns:xlink="http://www.w3.org/1999/xlink" x="0px" y="0px"
	 width="72px" height="72px" viewBox="-4 -4 72 72" enable-background="new -4 -4 72 72" xml:space="preserve">
<g>
	<g>
		<path fill="#231F20" d="M54.267,23.291c-5.297,0-9.603,4.308-9.603,9.601s4.305,9.601,9.603,9.601
			c5.292,0,9.599-4.307,9.599-9.601S59.559,23.291,54.267,23.291z"/>
	</g>
	<g>
		<path fill="#231F20" d="M48.189,47.866c-1.632-0.849-5.218-1.573-5.218-1.573c-0.054-0.009-0.108-0.017-0.162-0.025l-0.118-0.017
			c0.982-1.776,1.318-3.955,0.872-6.115c-0.462-2.24-1.691-4.204-3.38-5.413c2.063-9.963,6.488-15.576,13.524-17.155
			c3.485-0.781,4.433-3.648,4.188-5.866c-0.3-2.693-2.44-5.558-5.82-5.558c-0.461,0-0.939,0.054-1.415,0.161
			C38.777,8.973,31.271,18.718,28.354,35.274c-4.245,1.297-9.807,3.043-15.387,5.094c-2.796,1.028-4.855,3.005-5.75,5.46
			c-2.796,0.415-4.652,2.75-6.212,4.71l-0.871,1.077l1.417,1.146l0.951-1.169c2.247-3.654,5.639-3.771,5.639-3.771
			c0.541-0.093,1.024-0.136,1.476-0.136c2.361,0,4.668,0.982,6.335,2.703l0.918,0.943l0.915-0.946
			c1.662-1.718,3.97-2.701,6.331-2.701c2.703,0,5.23,1.229,6.93,3.373l1.002,1.267l1.001-1.267c2.133-2.694,5.586-3.909,8.905-3.141
			l0.856,0.204c0,0,3.075,0.61,4.536,1.372c2.305,1.317,3.716,1.933,6.095,2.059l0.72,0.04l0.102-1.828l-0.725-0.037
			C51.551,49.62,49.918,48.768,48.189,47.866z"/>
	</g>
</g>
</svg>
