<?xml version="1.0" encoding="utf-8"?>
<!-- Generator: Adobe Illustrator 17.0.0, SVG Export Plug-In . SVG Version: 6.00 Build 0)  -->
<!DOCTYPE svg PUBLIC "-//W3C//DTD SVG 1.1//EN" "http://www.w3.org/Graphics/SVG/1.1/DTD/svg11.dtd">
<svg version="1.1" id="Layer_1" xmlns="http://www.w3.org/2000/svg" xmlns:xlink="http://www.w3.org/1999/xlink" x="0px" y="0px"
	 width="72px" height="72px" viewBox="0 0 72 72" enable-background="new 0 0 72 72" xml:space="preserve">
<g>
	<path d="M64.163,22.227c-0.882-1.053-2.453-1.192-3.506-0.313l-6.902,5.797l-3.174-7.865c-0.113-0.295-0.284-0.543-0.481-0.762
		c-0.649-1.443-1.775-2.682-3.327-3.4c-0.674-0.306-1.37-0.47-2.066-0.55c-0.153-0.08-0.292-0.186-0.466-0.241l-12.148-3.385
		c-0.682-0.186-1.367-0.066-1.928,0.262c-0.667,0.226-1.239,0.711-1.512,1.414l-4.574,11.76c-0.496,1.279,0.138,2.722,1.421,3.225
		c1.276,0.496,2.722-0.142,3.222-1.425l3.863-9.929l5.532,1.538c-0.135,0.219-0.281,0.423-0.39,0.656l-7.092,15.372
		c-0.102,0.226-0.157,0.456-0.23,0.689l-8.619,14.45L7.361,54.345c-1.633,1.221-1.979,3.52-0.773,5.153
		c1.214,1.636,3.52,1.983,5.15,0.776l14.76-5.084c0.452-0.328,0.78-0.758,1.028-1.221c0.186-0.197,0.397-0.354,0.539-0.598
		l5.139-8.615l9.122,7.773l-9.76,10.999c-1.345,1.516-1.21,3.852,0.313,5.193c1.52,1.352,3.848,1.21,5.201-0.313l12.18-13.721
		c0.379-0.423,0.605-0.911,0.758-1.421c0.091-0.277,0.091-0.565,0.113-0.853c0-0.146,0.055-0.277,0.044-0.412
		c-0.033-1.006-0.441-1.983-1.265-2.679l-8.393-7.158c0.605-0.576,1.119-1.261,1.491-2.066l5.437-11.774l1.742,4.639
		c0.073,0.412,0.211,0.816,0.503,1.155c0.262,0.313,0.598,0.521,0.955,0.667c0.036,0.018,0.08,0.022,0.124,0.033
		c0.226,0.08,0.456,0.157,0.692,0.168c0.281,0.026,0.565-0.011,0.853-0.091c0.007-0.004,0.011-0.004,0.011-0.004
		c0.077-0.018,0.153-0.004,0.23-0.036c0.405-0.153,0.714-0.412,0.98-0.714l9.905-8.408C65.494,24.847,65.049,23.28,64.163,22.227z"
		/>
	<circle cx="51.634" cy="9.293" r="6.943"/>
</g>
<path fill="#231F20" d="M49.759,49.698V71.2h21.502V49.698H49.759z M66.52,66.177h-1.903v-8.812h-0.032l-3.166,8.812h-1.647
	l-3.166-8.812h-0.032v8.812H54.67V54.759h2.814l3.15,8.939h0.031l3.07-8.939h2.785V66.177z"/>
</svg>
