<?xml version="1.0" encoding="utf-8"?>
<!-- Generator: Adobe Illustrator 17.0.0, SVG Export Plug-In . SVG Version: 6.00 Build 0)  -->
<!DOCTYPE svg PUBLIC "-//W3C//DTD SVG 1.1//EN" "http://www.w3.org/Graphics/SVG/1.1/DTD/svg11.dtd">
<svg version="1.1" id="Capa_1" xmlns="http://www.w3.org/2000/svg" xmlns:xlink="http://www.w3.org/1999/xlink" x="0px" y="0px"
	 width="72px" height="72px" viewBox="0 0 72 72" enable-background="new 0 0 72 72" xml:space="preserve">
<g>
	<path fill="#0E0F0F" d="M14.922,63.489c7.862-1.059,12.875-6.241,14.965-13.062c0.292-0.003,0.574-0.025,0.846-0.069
		c2.102,4.64,2.013,9.48-2.039,13.765c-2.749,2.907,1.486,7.478,4.25,4.553c6.536-6.919,6.854-15.655,2.153-23.411
		c0.75-5.276,0.392-10.82-1.344-15.88c0.167-0.221,0.318-0.472,0.437-0.759c2.384-5.709,4.328-11.5,5.92-17.477
		c0.104-0.385,0.134-0.75,0.11-1.09c0.715,0.65,1.653,1.061,2.693,1.097c2.331,0.081,4.288-1.745,4.366-4.077
		c0.08-2.33-1.743-4.284-4.076-4.364c-2.331-0.08-4.287,1.745-4.366,4.076c-0.012,0.354,0.025,0.698,0.096,1.029
		c-1.582-1.134-4.128-0.946-4.769,1.47c-1.415,5.316-3.112,10.482-5.146,15.576c-0.567-0.062-1.167-0.03-1.796,0.118
		c-1.006,0.24-1.972,0.854-2.724,1.674c-5.932,2.579-11.55,7.19-8.902,14.422c0.585,1.59,1.956,2.732,3.756,2.305
		c1.504-0.36,2.889-2.157,2.303-3.755c-0.592-1.615-0.838-3.15,0.528-4.45c0.565-0.537,1.184-0.999,1.836-1.41
		c0.937,3.677,1.029,7.386,0.482,11.228c-0.056,0.385-0.046,0.762,0.012,1.131c-0.906,6.081-4.393,10.407-11.043,11.3
		C9.5,57.966,10.976,64.021,14.922,63.489z"/>
	<circle fill="#0E0F0F" cx="24.637" cy="19.208" r="5.347"/>
	<path fill="#0E0F0F" d="M61.909,10.472H46.778l0.088,0.269l1.728,8.876l-0.021,0.081l0.039,0.009l1.202,6.181h9.099l3.603-15.282
		h-0.003l0.034-0.133h-0.594l-0.039-0.009L61.909,10.472z M59.946,18.802l-0.52-1.255l1.281-1.972L59.946,18.802z M51.068,19.619
		l-1.275-2.098l1.29-2.122l0.009,0.016l0.026-0.046l1.268,2.084L51.068,19.619z M52.663,17.897l1.365,2.243l-1.301,2.135
		l-1.363-2.243L52.663,17.897z M51.393,14.918l1.293-2.125l1.311,2.156l-1.293,2.126L51.393,14.918z M54.27,15.399l0.009,0.016
		l0.027-0.046l1.266,2.082l-1.318,2.168l-1.275-2.098L54.27,15.399z M55.871,17.86l1.341,2.205L55.913,22.2l-1.341-2.205
		L55.871,17.86z M54.58,14.919l1.315-2.162l1.336,2.193l-1.315,2.164L54.58,14.919z M57.503,15.398l0.008,0.016l0.027-0.046
		l1.268,2.084l-1.32,2.168l-1.275-2.098L57.503,15.398z M57.813,14.918l1.299-2.135l1.38,2.268l-1.341,2.064L57.813,14.918z
		 M57.758,20.071l1.314-2.158l0.69,1.667l-0.644,2.729L57.758,20.071z M57.696,25.266l1.187-1.952l-0.46,1.952H57.696z
		 M57.441,24.782l-1.276-2.097l1.319-2.168l1.276,2.098L57.441,24.782z M54.555,25.266l1.318-2.166l1.319,2.166H54.555z
		 M54.301,24.782l-1.275-2.097l1.318-2.168l1.276,2.098L54.301,24.782z M51.324,25.266l1.364-2.241l1.362,2.241H51.324z
		 M50.098,24.089l0.717,1.177h-0.487L50.098,24.089z M49.82,22.643l1.292-2.125l1.277,2.098l-1.318,2.168l-1.228-2.016L49.82,22.643
		z M49.165,19.285l0.348-1.327l1.304,2.146l-1.13,1.859L49.165,19.285z M48.641,16.59l0.494,0.958l-0.177,0.677L48.641,16.59z
		 M49.061,12.321l-0.946,1.556l-0.304-1.556C47.811,12.321,49.061,12.321,49.061,12.321z M49.408,12.647l1.402,2.303l-1.346,2.214
		l-1.141-2.206l-0.077-0.4L49.408,12.647z M49.702,12.321l-0.152,0.093l0.057-0.092h0.095V12.321z M52.426,12.321l-1.308,2.148
		l-0.008-0.015L51.083,14.5l-1.326-2.179C49.757,12.321,52.426,12.321,52.426,12.321z M52.888,12.321l-0.125,0.074l-0.125-0.074
		H52.888z M55.615,12.32l-1.308,2.149l-0.008-0.015L54.271,14.5l-1.324-2.182l0,0h2.668V12.32z M56.121,12.322l-0.148,0.089
		l-0.149-0.089H56.121z M58.845,12.322l-1.306,2.148l-0.009-0.015l-0.027,0.046l-1.326-2.179
		C56.178,12.322,58.845,12.322,58.845,12.322z M59.323,12.322l-0.133,0.08l-0.132-0.08H59.323z M61.475,12.322l-0.519,2.2
		l-0.086-0.055l-0.097,0.149l-1.394-2.294C59.377,12.322,61.475,12.322,61.475,12.322z"/>
</g>
<g>
	<path fill="#231F20" d="M48.873,49.665v21.502h21.502V49.665H48.873z M62.941,66.145l-1.071-3.022h-4.558l-1.071,3.022h-2.063
		l4.382-11.418h2.127l4.397,11.418H62.941z"/>
	<polygon fill="#231F20" points="59.582,56.694 57.856,61.604 61.341,61.604 59.63,56.694 	"/>
</g>
</svg>
