<?xml version="1.0" encoding="utf-8"?>
<!-- Generator: Adobe Illustrator 17.0.0, SVG Export Plug-In . SVG Version: 6.00 Build 0)  -->
<!DOCTYPE svg PUBLIC "-//W3C//DTD SVG 1.1//EN" "http://www.w3.org/Graphics/SVG/1.1/DTD/svg11.dtd">
<svg version="1.1" id="Capa_1" xmlns="http://www.w3.org/2000/svg" xmlns:xlink="http://www.w3.org/1999/xlink" x="0px" y="0px"
	 width="64px" height="64px" viewBox="0 0 64 64" enable-background="new 0 0 64 64" xml:space="preserve">
<g>
	<path fill="#0E0F0F" d="M12.837,56.384c6.981-0.94,11.432-5.541,13.287-11.598c0.259-0.003,0.51-0.022,0.751-0.061
		c1.866,4.12,1.787,8.417-1.81,12.222c-2.441,2.581,1.319,6.64,3.774,4.043c5.803-6.143,6.086-13.9,1.912-20.787
		c0.666-4.685,0.348-9.607-1.193-14.1c0.148-0.196,0.282-0.419,0.388-0.674c2.117-5.069,3.843-10.211,5.256-15.518
		c0.092-0.342,0.119-0.666,0.098-0.968c0.635,0.577,1.468,0.942,2.391,0.974c2.07,0.072,3.807-1.549,3.877-3.62
		c0.071-2.069-1.548-3.804-3.619-3.875c-2.07-0.071-3.806,1.549-3.877,3.619c-0.011,0.314,0.022,0.62,0.085,0.914
		c-1.405-1.007-3.665-0.84-4.234,1.305c-1.256,4.72-2.763,9.307-4.569,13.83c-0.503-0.055-1.036-0.027-1.595,0.105
		c-0.893,0.213-1.751,0.758-2.419,1.486c-5.267,2.29-10.255,6.384-7.904,12.805c0.519,1.412,1.737,2.426,3.335,2.047
		c1.335-0.32,2.565-1.915,2.045-3.334c-0.526-1.434-0.744-2.797,0.469-3.951c0.502-0.477,1.051-0.887,1.63-1.252
		c0.832,3.265,0.914,6.558,0.428,9.969c-0.05,0.342-0.041,0.677,0.011,1.004c-0.806,5.4-3.902,9.241-9.806,10.034
		C8.023,51.48,9.333,56.856,12.837,56.384z"/>
	<circle fill="#0E0F0F" cx="21.463" cy="17.067" r="4.748"/>
	<path fill="#0E0F0F" d="M54.557,9.31H41.122L41.2,9.549l1.534,7.881l-0.019,0.072l0.035,0.008l1.067,5.488h8.079l3.199-13.569
		h-0.003l0.03-0.118h-0.527L54.56,9.303L54.557,9.31z M52.814,16.706l-0.462-1.114l1.137-1.751L52.814,16.706z M44.931,17.432
		l-1.132-1.863l1.145-1.884l0.008,0.014l0.023-0.041l1.126,1.85L44.931,17.432z M46.347,15.903l1.212,1.992l-1.155,1.896
		l-1.21-1.992L46.347,15.903z M45.22,13.258l1.148-1.887l1.164,1.914l-1.148,1.888L45.22,13.258z M47.774,13.685l0.008,0.014
		l0.024-0.041l1.124,1.849l-1.17,1.925l-1.132-1.863L47.774,13.685z M49.196,15.87l1.191,1.958l-1.153,1.896l-1.191-1.958
		L49.196,15.87z M48.049,13.259l1.168-1.92l1.186,1.947l-1.168,1.921L48.049,13.259z M50.645,13.684l0.007,0.014l0.024-0.041
		l1.126,1.85l-1.172,1.925l-1.132-1.863L50.645,13.684z M50.92,13.258l1.153-1.896l1.225,2.014l-1.191,1.833L50.92,13.258z
		 M50.871,17.833l1.167-1.916l0.613,1.48l-0.572,2.423L50.871,17.833z M50.816,22.446l1.054-1.733l-0.408,1.733H50.816z
		 M50.59,22.016l-1.133-1.862l1.171-1.925l1.133,1.863L50.59,22.016z M48.027,22.446l1.17-1.923l1.171,1.923H48.027z M47.802,22.016
		l-1.132-1.862l1.17-1.925l1.133,1.863L47.802,22.016z M45.158,22.446l1.211-1.99l1.209,1.99H45.158z M44.07,21.401l0.637,1.045
		h-0.432L44.07,21.401z M43.823,20.117l1.147-1.887l1.134,1.863l-1.17,1.925l-1.09-1.79L43.823,20.117z M43.241,17.135l0.309-1.178
		l1.158,1.905l-1.003,1.651L43.241,17.135z M42.776,14.742l0.439,0.851l-0.157,0.601L42.776,14.742z M43.149,10.952l-0.84,1.382
		l-0.27-1.382C42.039,10.952,43.149,10.952,43.149,10.952z M43.457,11.241l1.245,2.045l-1.195,1.966l-1.013-1.959l-0.068-0.355
		L43.457,11.241z M43.718,10.952l-0.135,0.082l0.051-0.082H43.718z M46.137,10.952l-1.161,1.907l-0.007-0.013l-0.024,0.041
		l-1.177-1.935C43.767,10.952,46.137,10.952,46.137,10.952z M46.547,10.952l-0.111,0.066l-0.111-0.066H46.547z M48.968,10.951
		l-1.161,1.908L47.8,12.846l-0.025,0.041l-1.176-1.937l0,0L48.968,10.951L48.968,10.951z M49.418,10.953l-0.131,0.079l-0.132-0.079
		H49.418z M51.836,10.953l-1.16,1.907l-0.007-0.013l-0.024,0.041l-1.177-1.935C49.468,10.953,51.836,10.953,51.836,10.953z
		 M52.261,10.953l-0.118,0.071l-0.117-0.071H52.261z M54.171,10.953l-0.461,1.953l-0.076-0.049l-0.086,0.132l-1.238-2.037
		C52.309,10.953,54.171,10.953,54.171,10.953z"/>
</g>
<path fill="#231F20" d="M43.418,43.5v19.575h19.575V43.5H43.418z M57.12,58.502h-1.85l-2.081-7.948H53.16l-2.125,7.948h-1.878
	L46.42,48.108h1.85l1.877,7.948h0.029l2.097-7.948h1.863l2.038,7.948h0.028l1.937-7.948h1.849L57.12,58.502z"/>
</svg>
