<?xml version="1.0" encoding="utf-8"?>
<!-- Generator: Adobe Illustrator 17.0.0, SVG Export Plug-In . SVG Version: 6.00 Build 0)  -->
<!DOCTYPE svg PUBLIC "-//W3C//DTD SVG 1.1//EN" "http://www.w3.org/Graphics/SVG/1.1/DTD/svg11.dtd">
<svg version="1.1" id="Capa_1" xmlns="http://www.w3.org/2000/svg" xmlns:xlink="http://www.w3.org/1999/xlink" x="0px" y="0px"
	 width="72px" height="72px" viewBox="138.466 210 72 72" enable-background="new 138.466 210 72 72" xml:space="preserve">
<path d="M183.372,253.076c-1.691-4.272-3.382-8.456-5.074-12.55c0-0.267-0.044-0.645-0.134-1.135
	c-0.09-0.49-0.179-1.513-0.267-3.071c-0.089-1.558,0-3.004,0.267-4.339c0.178-0.623,0.334-1.335,0.467-2.136
	c0.134-0.801,0.311-2.292,0.534-4.473s0.156-3.672-0.2-4.473c-0.979-1.958-2.537-3.026-4.673-3.204c-0.356,0-0.779,0.067-1.268,0.2
	s-1.202,0.579-2.136,1.335c-0.935,0.757-1.535,1.758-1.802,3.004c-0.089,1.602,0.089,3.338,0.534,5.207
	c0.178,0.712,0.378,1.647,0.601,2.804c0.223,1.157,0.334,3.093,0.334,5.808s-0.401,4.962-1.202,6.742
	c-2.492,5.163-3.827,8.367-4.005,9.613c-0.089,0.534-0.178,1.246-0.267,2.136c-0.089,0.89-0.2,2.604-0.334,5.14
	c-0.133,2.537,0.067,4.517,0.601,5.941c1.958,6.409,3.605,10.637,4.94,12.684c2.848,0.712,5.519,0.712,8.011,0
	c2.937-4.806,4.673-9.346,5.207-13.618c0.089,0,0.2-0.601,0.334-1.802c0.134-1.202,0.178-2.781,0.134-4.74
	S183.728,254.5,183.372,253.076z"/>
<path d="M197.123,248.537c-1.691-4.272-3.382-8.456-5.074-12.55c-0.089-0.267-0.156-0.645-0.2-1.135s-0.111-1.513-0.2-3.071
	c-0.087-1.558-0.043-3.004,0.134-4.339c0.178-0.534,0.334-1.224,0.467-2.069c0.134-0.846,0.334-2.359,0.601-4.539
	s0.178-3.672-0.267-4.473c-0.979-1.958-2.537-3.026-4.673-3.204c-0.267,0.09-0.645,0.179-1.135,0.267
	c-0.49,0.089-1.202,0.512-2.136,1.268c-0.935,0.757-1.535,1.758-1.802,3.004c-0.178,1.602-0.044,3.338,0.401,5.207
	c0.178,0.712,0.378,1.647,0.601,2.804s0.356,3.093,0.401,5.808c0.044,2.715-0.334,4.962-1.135,6.742
	c-0.445,0.89-0.89,1.825-1.335,2.804l4.539,11.349v0.134l0.134,0.133c0.801,3.293,0.846,7.343,0.134,12.15
	c-0.356,2.581-1.246,5.474-2.67,8.678c0,0.178,0.044,0.267,0.134,0.267c2.848,0.801,5.474,0.801,7.877,0
	c2.937-4.806,4.717-9.346,5.341-13.618C197.969,255.613,197.924,251.741,197.123,248.537z"/>
<path d="M166.549,242.262c0.089-0.267,0.223-0.623,0.401-1.068c-0.267-0.623-0.645-1.535-1.135-2.737s-0.823-2.025-1.001-2.47
	c-0.089-0.267-0.156-0.645-0.2-1.135c-0.044-0.49-0.111-1.491-0.2-3.004c-0.089-1.513,0-2.982,0.267-4.406
	c0.089-0.534,0.2-1.224,0.334-2.069c0.134-0.846,0.334-2.359,0.601-4.539c0.267-2.181,0.178-3.627-0.267-4.339
	c-0.979-2.047-2.492-3.16-4.539-3.338c-0.356,0.09-0.779,0.179-1.268,0.267c-0.49,0.089-1.202,0.512-2.136,1.268
	c-0.935,0.757-1.535,1.758-1.802,3.004c-0.178,1.691-0.044,3.471,0.401,5.341c0.267,0.623,0.49,1.513,0.668,2.67
	c0.178,1.157,0.29,3.093,0.334,5.808c0.044,2.715-0.334,5.007-1.135,6.876c-2.492,5.163-3.827,8.322-4.005,9.479
	c-0.178,0.623-0.311,1.357-0.401,2.203c-0.089,0.846-0.178,2.537-0.267,5.074c-0.089,2.537,0.089,4.517,0.534,5.941
	c1.958,6.409,3.649,10.681,5.074,12.817c2.848,0.712,5.474,0.668,7.877-0.134c0.089-0.089,0.178-0.223,0.267-0.401
	c-1.068-2.759-1.914-5.251-2.537-7.477c-0.979-3.916-0.979-8.5,0-13.752C162.677,250.807,164.056,247.513,166.549,242.262z"/>
</svg>
