<?xml version="1.0" encoding="utf-8"?>
<!-- Generator: Adobe Illustrator 17.0.0, SVG Export Plug-In . SVG Version: 6.00 Build 0)  -->
<!DOCTYPE svg PUBLIC "-//W3C//DTD SVG 1.1//EN" "http://www.w3.org/Graphics/SVG/1.1/DTD/svg11.dtd">
<svg version="1.1" id="Capa_1" xmlns="http://www.w3.org/2000/svg" xmlns:xlink="http://www.w3.org/1999/xlink" x="0px" y="0px"
	 width="72px" height="72px" viewBox="0 0 72 72" enable-background="new 0 0 72 72" xml:space="preserve">
<g>
	<path d="M45.627,54.609c-2.081-0.167-4.17-0.272-6.242-0.519c-1.975-0.235-3.949-0.538-5.894-0.949
		c-5.197-1.1-10.183-2.827-14.892-5.307c-3.912-2.06-7.524-4.533-10.458-7.89c-1.637-1.873-2.93-3.947-3.589-6.379
		c-0.369-1.36-0.322-2.735-0.25-4.12c0.233-4.484,2.947-7.169,6.633-9.123c2.98-1.58,6.209-2.369,9.534-2.765
		c1.561-0.186,3.137-0.262,4.708-0.347c0.53-0.029,1.066,0.092,1.6,0.104c1.307,0.029,2.617-0.007,3.922,0.057
		c2.705,0.134,5.38,0.528,8.018,1.132c4.312,0.988,8.48,2.413,12.493,4.274c4.111,1.906,7.935,4.262,11.207,7.438
		c2.078,2.017,3.811,4.275,4.777,7.046c0.476,1.366,0.691,2.763,0.563,4.219c-0.106,1.202-0.12,2.41-0.545,3.563
		c-0.867,2.349-2.497,4.058-4.543,5.409c-2.817,1.859-5.971,2.82-9.256,3.414C50.84,54.331,48.248,54.533,45.627,54.609z
		 M21.204,17.889c-0.005-0.028-0.009-0.056-0.014-0.084c-0.233,0.036-0.47,0.057-0.699,0.111c-0.781,0.185-1.57,0.349-2.337,0.582
		c-2.184,0.664-4.259,1.56-6.023,3.052c-1.887,1.596-3.096,3.561-3.173,6.095c-0.054,1.803,0.5,3.455,1.372,5.009
		c1.417,2.527,3.433,4.521,5.716,6.25c4.013,3.041,8.518,5.112,13.303,6.607c3.355,1.048,6.776,1.792,10.281,2.08
		c1.933,0.159,3.878,0.313,5.812,0.262c1.896-0.05,3.799-0.28,5.675-0.582c3.091-0.497,6.015-1.499,8.533-3.436
		c3.065-2.357,4.258-5.666,3.019-9.375c-0.676-2.022-1.864-3.729-3.309-5.266c-0.618-0.657-1.28-1.271-1.922-1.905
		c-0.031,0.032-0.062,0.064-0.093,0.096c0.106,0.112,0.207,0.23,0.32,0.335c1.399,1.298,2.625,2.736,3.539,4.421
		c1.135,2.092,1.669,4.291,0.966,6.635c-0.705,2.35-2.358,3.946-4.405,5.161c-2.72,1.616-5.725,2.389-8.832,2.725
		c-1.952,0.211-3.926,0.305-5.889,0.291c-1.544-0.011-3.093-0.219-4.627-0.426c-1.662-0.224-3.34-0.433-4.957-0.854
		c-2.303-0.601-4.583-1.316-6.825-2.115c-3.113-1.11-6.029-2.639-8.745-4.534c-2.35-1.639-4.451-3.535-6.055-5.935
		c-1.101-1.648-1.843-3.439-1.871-5.439c-0.026-1.808,0.572-3.435,1.735-4.84c1.872-2.262,4.397-3.444,7.12-4.288
		C19.603,18.28,20.408,18.099,21.204,17.889z M33.899,22.661c-0.643,0.085-1.897,0.18-3.118,0.432
		c-1.371,0.283-2.643,0.848-3.567,1.97c-0.999,1.213-0.987,2.76,0.005,4.307c0.826,1.289,1.966,2.254,3.26,3.032
		c3.793,2.284,7.916,3.244,12.323,2.907c1.649-0.126,3.237-0.536,4.611-1.537c1.468-1.07,1.906-2.699,1.161-4.357
		c-0.607-1.35-1.633-2.348-2.816-3.179C42.386,23.867,38.586,22.833,33.899,22.661z"/>
</g>
</svg>
