<?xml version="1.0" encoding="utf-8"?>
<!-- Generator: Adobe Illustrator 17.0.0, SVG Export Plug-In . SVG Version: 6.00 Build 0)  -->
<!DOCTYPE svg PUBLIC "-//W3C//DTD SVG 1.1//EN" "http://www.w3.org/Graphics/SVG/1.1/DTD/svg11.dtd">
<svg version="1.1" id="Capa_1" xmlns="http://www.w3.org/2000/svg" xmlns:xlink="http://www.w3.org/1999/xlink" x="0px" y="0px"
	 width="72px" height="72px" viewBox="-4 -4 72 72" enable-background="new -4 -4 72 72" xml:space="preserve">
<g>
	<polygon points="35.118,26.781 44.011,14.051 33.19,3.958 18.075,9.395 18.578,23.639 	"/>
	<polygon points="29.357,52.571 37.496,61.051 51.712,54.979 54.035,42.418 39.921,40.68 	"/>
	<path d="M0.842,43.795l0.18,0.218c4.836,12.34,16.841,21.082,30.895,21.082c18.324,0,33.179-14.854,33.179-33.179
		S50.241-1.262,31.917-1.262S-1.262,13.592-1.262,31.917c0,4.103,0.75,8.03,2.112,11.658L0.842,43.795z M0.468,31.917
		c0-4.191,0.831-8.189,2.324-11.848l7.848-9.738l2.035-3.262c5.323-4.131,11.997-6.6,19.241-6.6c0.174,0,0.346,0.01,0.52,0.013
		l3.51,1.292l7.736,0.987c4.955,2.007,9.287,5.237,12.615,9.321l-1.286,5.61l5.084,14.335l3.246,0.824
		c-0.497,16.91-14.398,30.515-31.425,30.515c-8.479,0-16.178-3.379-21.839-8.852l6.103-5.243l-5.825-15.015l-9.114-3.139
		L1.03,37.811C0.667,35.901,0.468,33.932,0.468,31.917z"/>
</g>
</svg>
