<?xml version="1.0" encoding="utf-8"?>
<!-- Generator: Adobe Illustrator 17.0.0, SVG Export Plug-In . SVG Version: 6.00 Build 0)  -->
<!DOCTYPE svg PUBLIC "-//W3C//DTD SVG 1.1//EN" "http://www.w3.org/Graphics/SVG/1.1/DTD/svg11.dtd">
<svg version="1.1" id="Capa_1" xmlns="http://www.w3.org/2000/svg" xmlns:xlink="http://www.w3.org/1999/xlink" x="0px" y="0px"
	 width="72px" height="72px" viewBox="-15.298 -15.296 72 72" enable-background="new -15.298 -15.296 72 72" xml:space="preserve">
<g>
	<path fill="#262626" d="M17.271-12.127C9.982-11.447,2.866-8.309-2.727-2.721c-5.591,5.588-8.726,12.704-9.404,20.002
		c8.003,0.927,16.515,5.02,23.5,12.003c6.988,6.99,11.086,15.508,12.007,23.503c7.308-0.675,14.408-3.816,20.005-9.402
		c5.591-5.585,8.726-12.705,9.399-20.002c-7.984-0.924-16.51-5.017-23.495-12.003C22.302,4.395,18.204-4.123,17.271-12.127z"/>
	<path fill="#262626" d="M52.905,19.345C52.666,11.331,49.5,3.391,43.386-2.726c-6.112-6.117-14.06-9.278-22.076-9.525
		c0.903,6.999,4.62,14.52,10.85,20.753C38.395,14.732,45.904,18.442,52.905,19.345z"/>
	<path fill="#262626" d="M-12.25,21.317c0.236,8.014,3.408,15.956,9.523,22.068c6.112,6.113,14.052,9.287,22.063,9.523
		c-0.9-6.988-4.612-14.509-10.845-20.742C2.265,25.937-5.254,22.225-12.25,21.317z"/>
</g>
</svg>
