<?xml version="1.0" encoding="utf-8"?>
<!-- Generator: Adobe Illustrator 17.0.0, SVG Export Plug-In . SVG Version: 6.00 Build 0)  -->
<!DOCTYPE svg PUBLIC "-//W3C//DTD SVG 1.1//EN" "http://www.w3.org/Graphics/SVG/1.1/DTD/svg11.dtd">
<svg version="1.1" id="Capa_1" xmlns="http://www.w3.org/2000/svg" xmlns:xlink="http://www.w3.org/1999/xlink" x="0px" y="0px"
	 width="72px" height="72px" viewBox="0 0 72 72" enable-background="new 0 0 72 72" xml:space="preserve">
<g>
	<path fill="none" d="M36.957,21.581c-2.807,1.165-5.663,2.357-8.337,3.785c-0.656,0.363-1.586,0.628-2.15,1.127
		c-0.223,0.194-0.149,0.518,0.023,0.715c0.747,0.831,1.764,1.475,2.634,2.147c1.522,1.16,3.002,2.296,4.62,3.312
		c0.704,0.458,1.761,1.529,2.631,1.561c0.596,0.02,1.311-0.561,1.864-0.805c1.483-0.653,2.979-1.326,4.511-1.892
		c3.9-1.445,8.01-2.161,12.167-2.215c2.592-0.039,5.468,0.421,7.869,1.389c0.727,0.3,1.429,0.633,2.09,1.039
		c0.272,0.162,0.591,0.431,0.908,0.26c0.231-0.117,0.283-0.407,0.357-0.621c0.19-0.573,0.316-1.134,0.421-1.729
		c0.411-2.113-0.035-3.771-0.785-5.755c-0.252-0.645-0.472-1.526-1.016-2.008c-2.256-1.969-5.236-2.732-8.134-3.178
		C50.009,17.688,43.094,19.021,36.957,21.581z"/>
	<path fill="none" d="M20.327,15.817c0.479,0.364,1.629-0.592,2.046-0.839c1.861-1.114,3.924-2.027,5.966-2.763
		c2.694-0.973,5.334-2.044,8.148-2.682c3.557-0.819,7.224-1.03,10.869-1.03c1.544,0,3.073,0.186,4.601,0.301
		c0.342,0.025,1.918,0.139,1.04-0.499c-1.122-0.816-2.491-1.44-3.753-2.016c-3.945-1.795-8.147-2.685-12.467-2.885
		c-2.164-0.102-4.935-0.117-6.873,0.937c-2.448,1.327-4.867,2.648-7.165,4.225c-0.78,0.527-2.084,1.151-2.586,1.973
		c-0.725,1.171-0.44,2.722-0.216,3.996C20.004,14.875,20.013,15.597,20.327,15.817z"/>
	<path fill="none" d="M28.395,13.343c-1.992,0.807-3.982,1.629-5.811,2.765c-0.479,0.292-1.381,0.579-1.71,1.034
		c-0.366,0.539,0.329,1.684,0.527,2.225c0.636,1.657,1.541,3.26,2.568,4.709c0.344,0.47,0.679,1.147,1.142,1.497
		c0.378,0.297,0.833-0.055,1.176-0.229c0.953-0.469,1.912-0.954,2.854-1.443c1.215-0.625,2.485-1.109,3.731-1.661
		c2.782-1.247,5.525-2.406,8.451-3.297c5.162-1.551,10.762-2.103,16.095-1.177c1.493,0.259,3.054,0.624,4.488,1.17
		c0.293,0.109,1.234,0.649,1.486,0.372c0.151-0.175-0.047-0.426-0.138-0.587c-0.304-0.501-0.621-0.988-0.953-1.48
		c-1.349-2.035-3.012-4.131-4.901-5.683c-2.157-1.764-5.204-1.672-7.838-1.873C42.225,9.117,35.177,10.583,28.395,13.343z"/>
	<path fill="none" d="M66.405,39.155c-0.152-1.469-0.39-2.983-0.759-4.418c-0.151-0.587-0.274-1.307-0.773-1.697
		c-0.78-0.575-1.741-1.008-2.64-1.343c-0.291-0.107-0.736-0.353-1.01-0.115c-0.347,0.327-0.147,1.427-0.175,1.867
		c-0.073,1.728-0.223,3.426-0.466,5.141c-0.4,2.83-0.786,5.671-1.525,8.439c-0.215,0.816-0.473,1.63-0.75,2.44h6.242
		c1.104-2.18,1.875-4.491,2.088-6.867C66.742,41.485,66.522,40.275,66.405,39.155z"/>
	<path fill="none" d="M60,33.49c0.013-0.617,0.285-2.138-0.34-2.51c-0.538-0.3-1.392-0.3-1.987-0.381
		c-1.867-0.244-3.671-0.189-5.543-0.029c-0.571,0.041-2.005-0.1-2.368,0.427c-0.333,0.506-0.095,1.735-0.095,2.336
		c0,1.878-0.077,3.786-0.252,5.662c-0.577,5.738-1.556,11.675-4.312,16.791c-1.591,2.953-3.472,5.902-5.717,8.406
		c-0.513,0.576-1.05,1.136-1.557,1.729c-0.145,0.155-0.463,0.51-0.194,0.704c0.361,0.265,1.452-0.023,1.87-0.055
		c1.839-0.194,3.668-0.557,5.457-1.067c0.685-0.19,1.504-0.361,2.113-0.736c0.56-0.335,0.945-0.85,1.387-1.31
		c0.255-0.26,0.487-0.534,0.731-0.8V49.469h7.924c0.902-2.72,1.537-5.525,2.048-8.369C59.611,38.608,59.948,36.023,60,33.49z"/>
	<path fill="none" d="M25.902,42.89c1.6,1.237,3.288,2.325,5.049,3.335c0.71,0.409,1.572,1.046,2.374,1.24
		c0.446,0.114,0.606-0.195,0.738-0.564c0.223-0.676,0.404-1.355,0.595-2.039c0.594-2.098,1.028-4.239,1.243-6.406
		c0.1-0.89,0.295-1.943,0.04-2.817c-0.204-0.676-1.315-1.082-1.87-1.469c-1.774-1.225-3.619-2.332-5.33-3.658
		c-1.24-0.956-2.482-1.937-3.538-3.094c-2.384-2.58-3.972-5.678-5.264-8.901c-0.704-1.8-1.082-3.712-1.257-5.628
		c-0.04-0.452,0.215-1.801-0.254-2.004c-0.664-0.295-1.788,0.112-2.427,0.295c-1.966,0.572-3.437,2.628-4.646,4.177
		c-0.455,0.576-1.076,1.222-1.225,1.955c-0.338,1.612,0.149,3.263,0.562,4.8C12.973,30.475,19.136,37.701,25.902,42.89z"/>
	<path fill="none" d="M26.997,59.766c0.272-0.272,0.818-0.704,0.609-1.151c-0.1-0.217-0.404-0.346-0.598-0.464
		c-0.478-0.286-0.944-0.581-1.4-0.862c-1.646-0.983-3.249-2.055-4.767-3.221c-4.295-3.3-8.179-7.46-11.297-11.906
		c-1.238-1.769-2.432-3.682-3.36-5.645C5.9,35.876,5.632,35.22,5.322,34.582c-0.095-0.224-0.209-0.591-0.433-0.728
		c-0.312-0.181-0.331,0.39-0.34,0.561c-0.041,0.71,0.01,1.432,0.045,2.144c0.14,2.694,0.635,5.424,1.491,7.995
		c0.917,2.751,2.11,5.414,3.728,7.847c0.524,0.778,1.028,1.631,1.683,2.307c2.318,2.432,5.51,4.058,8.565,5.367
		c1.178,0.508,2.359,1.264,3.623,1.56c0.459,0.106,0.826-0.105,1.206-0.309C25.655,60.911,26.376,60.384,26.997,59.766z"/>
	<path fill="none" d="M46.727,48.53c0.484-1.875,0.807-3.755,1.105-5.668c0.456-2.92,0.648-5.803,0.785-8.746
		c0.037-0.701,0.05-1.42,0.012-2.118c-0.021-0.258-0.004-0.621-0.258-0.767c-0.256-0.136-0.57-0.03-0.831,0.028
		c-0.603,0.153-1.205,0.298-1.8,0.456c-2.139,0.535-4.14,1.5-6.146,2.364c-0.672,0.298-1.884,0.569-2.327,1.179
		c-0.363,0.5-0.14,1.439-0.172,2.029c-0.074,1.446-0.264,2.958-0.584,4.36c-1.144,5.011-2.61,10.075-5.267,14.512
		c-1.065,1.773-2.482,3.536-4.066,4.867c-0.549,0.452-1.108,0.842-1.735,1.185c-0.255,0.146-0.653,0.272-0.762,0.576
		c-0.085,0.295,0.106,0.532,0.264,0.755c0.382,0.507,0.879,1.144,1.422,1.494c0.581,0.361,1.387,0.494,2.046,0.655
		c1.5,0.382,3.029,0.673,4.58,0.854c0.704,0.075,1.695,0.324,2.368,0.035c1.665-0.718,2.988-2.697,4.075-4.059
		C42.75,58.373,45.391,53.685,46.727,48.53z"/>
	<path fill="none" d="M21.08,52.914c1.632,1.291,3.359,2.393,5.116,3.501c0.611,0.386,1.535,1.197,2.242,1.308
		c0.669,0.101,1.3-1.145,1.62-1.626c1.054-1.673,1.849-3.49,2.608-5.314c0.206-0.518,0.822-1.449,0.541-2.01
		c-0.137-0.263-0.495-0.373-0.738-0.504c-0.603-0.314-1.205-0.626-1.803-0.956c-1.974-1.085-3.842-2.368-5.626-3.728
		c-5.101-3.899-9.728-8.995-12.708-14.704c-1.148-2.208-2.103-4.517-2.792-6.905c-0.179-0.597-0.296-1.19-0.41-1.8
		c-0.037-0.191-0.041-0.56-0.264-0.635c-0.28-0.087-0.456,0.305-0.547,0.489c-0.358,0.657-0.687,1.346-0.988,2.022
		c-0.908,2.025-1.588,4.135-2.061,6.296c-0.195,0.878-0.527,1.932-0.23,2.813C7.844,39.782,14.089,47.339,21.08,52.914z"/>
	<path fill="#262626" d="M48.462,63.457c-0.442,0.46-0.827,0.975-1.387,1.31c-0.609,0.375-1.428,0.546-2.113,0.736
		c-1.789,0.51-3.618,0.873-5.457,1.067c-0.418,0.032-1.509,0.32-1.87,0.055c-0.269-0.194,0.049-0.549,0.194-0.704
		c0.507-0.593,1.044-1.153,1.557-1.729c2.245-2.504,4.126-5.453,5.717-8.406c2.756-5.116,3.735-11.053,4.312-16.791
		c0.175-1.876,0.252-3.784,0.252-5.662c0-0.601-0.238-1.83,0.095-2.336c0.363-0.527,1.797-0.386,2.368-0.427
		c1.872-0.16,3.676-0.215,5.543,0.029c0.595,0.081,1.449,0.081,1.987,0.381c0.625,0.372,0.353,1.893,0.34,2.51
		c-0.052,2.533-0.389,5.118-0.835,7.61c-0.511,2.844-1.146,5.649-2.048,8.369h1.19c0.278-0.81,0.536-1.624,0.75-2.44
		c0.739-2.768,1.125-5.609,1.525-8.439c0.243-1.715,0.393-3.413,0.466-5.141c0.028-0.44-0.172-1.54,0.175-1.867
		c0.274-0.238,0.719,0.008,1.01,0.115c0.899,0.335,1.86,0.768,2.64,1.343c0.499,0.39,0.622,1.11,0.773,1.697
		c0.369,1.435,0.607,2.949,0.759,4.418c0.117,1.12,0.337,2.33,0.231,3.447c-0.212,2.376-0.984,4.687-2.088,6.867h1.349
		c0.049-0.1,0.104-0.197,0.152-0.298c4.481-9.444,4.039-20.841-1.019-29.959c-1.505-2.711-3.495-5.633-5.888-7.63
		c-1.79-1.488-3.415-3.037-5.377-4.314C48.75,4.021,42.852,2.318,36.906,2.15c-4.094-0.117-8.118,0.581-11.973,1.918
		C15.948,7.154,8.527,14.759,5.279,23.61c-2.07,5.629-2.517,11.857-1.375,17.73c1.449,7.406,5.534,14.082,11.277,18.934
		c9.487,8.016,22.888,9.741,34.012,5.068v-2.685C48.949,62.923,48.717,63.197,48.462,63.457z M65.78,23.899
		c0.75,1.984,1.196,3.642,0.785,5.755c-0.105,0.595-0.231,1.156-0.421,1.729c-0.074,0.214-0.126,0.504-0.357,0.621
		c-0.317,0.171-0.636-0.098-0.908-0.26c-0.661-0.406-1.363-0.739-2.09-1.039c-2.401-0.968-5.277-1.428-7.869-1.389
		c-4.157,0.054-8.267,0.77-12.167,2.215c-1.532,0.566-3.028,1.239-4.511,1.892c-0.553,0.244-1.268,0.825-1.864,0.805
		c-0.87-0.032-1.927-1.103-2.631-1.561c-1.618-1.016-3.098-2.152-4.62-3.312c-0.87-0.672-1.887-1.316-2.634-2.147
		c-0.172-0.197-0.246-0.521-0.023-0.715c0.564-0.499,1.494-0.764,2.15-1.127c2.674-1.428,5.53-2.62,8.337-3.785
		c6.137-2.56,13.052-3.893,19.673-2.868c2.898,0.446,5.878,1.209,8.134,3.178C65.308,22.373,65.528,23.254,65.78,23.899z
		 M57.4,11.558c1.889,1.552,3.552,3.648,4.901,5.683c0.332,0.492,0.649,0.979,0.953,1.48c0.091,0.161,0.289,0.412,0.138,0.587
		c-0.252,0.277-1.193-0.263-1.486-0.372c-1.434-0.546-2.995-0.911-4.488-1.17c-5.333-0.926-10.933-0.374-16.095,1.177
		c-2.926,0.891-5.669,2.05-8.451,3.297c-1.246,0.552-2.516,1.036-3.731,1.661c-0.942,0.489-1.901,0.974-2.854,1.443
		c-0.343,0.174-0.798,0.526-1.176,0.229c-0.463-0.35-0.798-1.027-1.142-1.497c-1.027-1.449-1.932-3.052-2.568-4.709
		c-0.198-0.541-0.893-1.686-0.527-2.225c0.329-0.455,1.231-0.742,1.71-1.034c1.829-1.136,3.819-1.958,5.811-2.765
		c6.782-2.76,13.83-4.226,21.167-3.658C52.196,9.886,55.243,9.794,57.4,11.558z M20.153,10.539c0.502-0.822,1.806-1.446,2.586-1.973
		c2.298-1.577,4.717-2.898,7.165-4.225c1.938-1.054,4.709-1.039,6.873-0.937c4.32,0.2,8.522,1.09,12.467,2.885
		c1.262,0.576,2.631,1.2,3.753,2.016c0.878,0.638-0.698,0.524-1.04,0.499c-1.528-0.115-3.057-0.301-4.601-0.301
		c-3.645,0-7.312,0.211-10.869,1.03c-2.814,0.638-5.454,1.709-8.148,2.682c-2.042,0.736-4.105,1.649-5.966,2.763
		c-0.417,0.247-1.567,1.203-2.046,0.839c-0.314-0.22-0.323-0.942-0.39-1.282C19.713,13.261,19.428,11.71,20.153,10.539z
		 M10.13,17.312c0.149-0.733,0.77-1.379,1.225-1.955c1.209-1.549,2.68-3.605,4.646-4.177c0.639-0.183,1.763-0.59,2.427-0.295
		c0.469,0.203,0.214,1.552,0.254,2.004c0.175,1.916,0.553,3.828,1.257,5.628c1.292,3.223,2.88,6.321,5.264,8.901
		c1.056,1.157,2.298,2.138,3.538,3.094c1.711,1.326,3.556,2.433,5.33,3.658c0.555,0.387,1.666,0.793,1.87,1.469
		c0.255,0.874,0.06,1.927-0.04,2.817c-0.215,2.167-0.649,4.308-1.243,6.406c-0.191,0.684-0.372,1.363-0.595,2.039
		c-0.132,0.369-0.292,0.678-0.738,0.564c-0.802-0.194-1.664-0.831-2.374-1.24c-1.761-1.01-3.449-2.098-5.049-3.335
		c-6.766-5.189-12.929-12.415-15.21-20.778C10.279,20.575,9.792,18.924,10.13,17.312z M5.27,28.348
		c0.473-2.161,1.153-4.271,2.061-6.296c0.301-0.676,0.63-1.365,0.988-2.022c0.091-0.184,0.267-0.576,0.547-0.489
		c0.223,0.075,0.227,0.444,0.264,0.635c0.114,0.61,0.231,1.203,0.41,1.8c0.689,2.388,1.644,4.697,2.792,6.905
		c2.98,5.709,7.607,10.805,12.708,14.704c1.784,1.36,3.652,2.643,5.626,3.728c0.598,0.33,1.2,0.642,1.803,0.956
		c0.243,0.131,0.601,0.241,0.738,0.504c0.281,0.561-0.335,1.492-0.541,2.01c-0.759,1.824-1.554,3.641-2.608,5.314
		c-0.32,0.481-0.951,1.727-1.62,1.626c-0.707-0.111-1.631-0.922-2.242-1.308c-1.757-1.108-3.484-2.21-5.116-3.501
		C14.089,47.339,7.844,39.782,5.04,31.161C4.743,30.28,5.075,29.226,5.27,28.348z M23.684,61.635
		c-1.264-0.296-2.445-1.052-3.623-1.56c-3.055-1.309-6.247-2.935-8.565-5.367c-0.655-0.676-1.159-1.529-1.683-2.307
		c-1.618-2.433-2.811-5.096-3.728-7.847c-0.856-2.571-1.351-5.301-1.491-7.995c-0.035-0.712-0.086-1.434-0.045-2.144
		c0.009-0.171,0.028-0.742,0.34-0.561c0.224,0.137,0.338,0.504,0.433,0.728c0.31,0.638,0.578,1.294,0.862,1.935
		c0.928,1.963,2.122,3.876,3.36,5.645c3.118,4.446,7.002,8.606,11.297,11.906c1.518,1.166,3.121,2.238,4.767,3.221
		c0.456,0.281,0.922,0.576,1.4,0.862c0.194,0.118,0.498,0.247,0.598,0.464c0.209,0.447-0.337,0.879-0.609,1.151
		c-0.621,0.618-1.342,1.145-2.107,1.56C24.51,61.53,24.143,61.741,23.684,61.635z M35.361,66.58
		c-0.673,0.289-1.664,0.04-2.368-0.035c-1.551-0.181-3.08-0.472-4.58-0.854c-0.659-0.161-1.465-0.294-2.046-0.655
		c-0.543-0.35-1.04-0.987-1.422-1.494c-0.158-0.223-0.349-0.46-0.264-0.755c0.109-0.304,0.507-0.43,0.762-0.576
		c0.627-0.343,1.186-0.733,1.735-1.185c1.584-1.331,3.001-3.094,4.066-4.867c2.657-4.437,4.123-9.501,5.267-14.512
		c0.32-1.402,0.51-2.914,0.584-4.36c0.032-0.59-0.191-1.529,0.172-2.029c0.443-0.61,1.655-0.881,2.327-1.179
		c2.006-0.864,4.007-1.829,6.146-2.364c0.595-0.158,1.197-0.303,1.8-0.456c0.261-0.058,0.575-0.164,0.831-0.028
		c0.254,0.146,0.237,0.509,0.258,0.767c0.038,0.698,0.025,1.417-0.012,2.118c-0.137,2.943-0.329,5.826-0.785,8.746
		c-0.298,1.913-0.621,3.793-1.105,5.668c-1.336,5.155-3.977,9.843-7.291,13.991C38.349,63.883,37.026,65.862,35.361,66.58z"/>
	<path fill="#231F20" d="M65.897,49.469h-1.349h-6.242h-1.19h-7.924v13.188v2.685v5.629h21.502V49.469H65.897z M64.396,63.669
		h-1.643v3.029h-1.971v-3.029h-5.475v-2.063l5.475-7.683h1.971v8.103h1.643V63.669z"/>
	<polygon fill="#231F20" points="60.782,56.405 60.746,56.405 56.913,62.026 60.782,62.026 	"/>
</g>
</svg>
