<?xml version="1.0" encoding="utf-8"?>
<!-- Generator: Adobe Illustrator 17.0.0, SVG Export Plug-In . SVG Version: 6.00 Build 0)  -->
<!DOCTYPE svg PUBLIC "-//W3C//DTD SVG 1.1//EN" "http://www.w3.org/Graphics/SVG/1.1/DTD/svg11.dtd">
<svg version="1.1" id="Capa_1" xmlns="http://www.w3.org/2000/svg" xmlns:xlink="http://www.w3.org/1999/xlink" x="0px" y="0px"
	 width="72px" height="72px" viewBox="-14.577 -14.601 72 72" enable-background="new -14.577 -14.601 72 72" xml:space="preserve">
<path fill="#262626" stroke="#000000" stroke-width="0.25" stroke-miterlimit="10" d="M50.655,4.962
	c-1.505-2.711-3.495-5.633-5.888-7.63c-1.79-1.488-3.415-3.037-5.377-4.314c-5.015-3.247-10.913-4.95-16.859-5.118
	c-4.094-0.117-8.118,0.581-11.973,1.918C1.573-7.096-5.848,0.509-9.096,9.36c-2.07,5.629-2.517,11.857-1.375,17.73
	c1.449,7.406,5.534,14.082,11.277,18.934c11.975,10.119,30.191,10.223,42.185,0.074c3.627-3.054,6.638-6.874,8.683-11.177
	C56.155,25.477,55.713,14.08,50.655,4.962z M51.405,9.649c0.75,1.984,1.196,3.642,0.785,5.755c-0.105,0.595-0.231,1.156-0.421,1.729
	c-0.074,0.214-0.126,0.504-0.357,0.621c-0.317,0.171-0.636-0.098-0.908-0.26c-0.661-0.406-1.363-0.739-2.09-1.039
	c-2.401-0.968-5.277-1.428-7.869-1.389c-4.157,0.054-8.267,0.77-12.167,2.215c-1.532,0.566-3.028,1.239-4.511,1.892
	c-0.553,0.244-1.268,0.825-1.864,0.805c-0.87-0.032-1.927-1.103-2.631-1.561c-1.618-1.016-3.098-2.152-4.62-3.312
	c-0.87-0.672-1.887-1.316-2.634-2.147c-0.172-0.197-0.246-0.521-0.023-0.715c0.564-0.499,1.494-0.764,2.15-1.127
	c2.674-1.428,5.53-2.62,8.337-3.785c6.137-2.56,13.052-3.893,19.673-2.868c2.898,0.446,5.878,1.209,8.134,3.178
	C50.933,8.123,51.153,9.004,51.405,9.649z M43.025-2.692c1.889,1.552,3.552,3.648,4.901,5.683c0.332,0.492,0.649,0.979,0.953,1.48
	c0.091,0.161,0.289,0.412,0.138,0.587c-0.252,0.277-1.193-0.263-1.486-0.372c-1.434-0.546-2.995-0.911-4.488-1.17
	C37.71,2.59,32.11,3.142,26.948,4.693c-2.926,0.891-5.669,2.05-8.451,3.297c-1.246,0.552-2.516,1.036-3.731,1.661
	c-0.942,0.489-1.901,0.974-2.854,1.443c-0.343,0.174-0.798,0.526-1.176,0.229c-0.463-0.35-0.798-1.027-1.142-1.497
	C8.567,8.377,7.662,6.774,7.026,5.117C6.828,4.576,6.133,3.431,6.499,2.892c0.329-0.455,1.231-0.742,1.71-1.034
	c1.829-1.136,3.819-1.958,5.811-2.765c6.782-2.76,13.83-4.226,21.167-3.658C37.821-4.364,40.868-4.456,43.025-2.692z M15.529-9.909
	c1.938-1.054,4.709-1.039,6.873-0.937c4.32,0.2,8.522,1.09,12.467,2.885c1.262,0.576,2.631,1.2,3.753,2.016
	c0.878,0.638-0.698,0.524-1.04,0.499c-1.528-0.115-3.057-0.301-4.601-0.301c-3.645,0-7.312,0.211-10.869,1.03
	c-2.814,0.638-5.454,1.709-8.148,2.682c-2.042,0.736-4.105,1.649-5.966,2.763C7.581,0.975,6.431,1.931,5.952,1.567
	c-0.314-0.22-0.323-0.942-0.39-1.282C5.338-0.989,5.053-2.54,5.778-3.711C6.28-4.533,7.584-5.157,8.364-5.684
	C10.662-7.261,13.081-8.582,15.529-9.909z M-4.245,3.062c0.149-0.733,0.77-1.379,1.225-1.955c1.209-1.549,2.68-3.605,4.646-4.177
	c0.639-0.183,1.763-0.59,2.427-0.295c0.469,0.203,0.214,1.552,0.254,2.004c0.175,1.916,0.553,3.828,1.257,5.628
	c1.292,3.223,2.88,6.321,5.264,8.901c1.056,1.157,2.298,2.138,3.538,3.094c1.711,1.326,3.556,2.433,5.33,3.658
	c0.555,0.387,1.666,0.793,1.87,1.469c0.255,0.874,0.06,1.927-0.04,2.817c-0.215,2.167-0.649,4.308-1.243,6.406
	c-0.191,0.684-0.372,1.363-0.595,2.039c-0.132,0.369-0.292,0.678-0.738,0.564c-0.802-0.194-1.664-0.831-2.374-1.24
	c-1.761-1.01-3.449-2.098-5.049-3.335C4.761,23.451-1.402,16.225-3.683,7.862C-4.096,6.325-4.583,4.674-4.245,3.062z M-9.105,14.098
	c0.473-2.161,1.153-4.271,2.061-6.296c0.301-0.676,0.63-1.365,0.988-2.022c0.091-0.184,0.267-0.576,0.547-0.489
	c0.223,0.075,0.227,0.444,0.264,0.635c0.114,0.61,0.231,1.203,0.41,1.8c0.689,2.388,1.644,4.697,2.792,6.905
	c2.98,5.709,7.607,10.805,12.708,14.704c1.784,1.36,3.652,2.643,5.626,3.728c0.598,0.33,1.2,0.642,1.803,0.956
	c0.243,0.131,0.601,0.241,0.738,0.504c0.281,0.561-0.335,1.492-0.541,2.01c-0.759,1.824-1.554,3.641-2.608,5.314
	c-0.32,0.481-0.951,1.727-1.62,1.626c-0.707-0.111-1.631-0.922-2.242-1.308c-1.757-1.108-3.484-2.21-5.116-3.501
	C-0.286,33.089-6.531,25.532-9.335,16.911C-9.632,16.03-9.3,14.976-9.105,14.098z M5.686,45.825
	c-3.055-1.309-6.247-2.935-8.565-5.367c-0.655-0.676-1.159-1.529-1.683-2.307c-1.618-2.433-2.811-5.096-3.728-7.847
	c-0.856-2.571-1.351-5.301-1.491-7.995c-0.035-0.712-0.086-1.434-0.045-2.144c0.009-0.171,0.028-0.742,0.34-0.561
	c0.224,0.137,0.338,0.504,0.433,0.728c0.31,0.638,0.578,1.294,0.862,1.935c0.928,1.963,2.122,3.876,3.36,5.645
	c3.118,4.446,7.002,8.606,11.297,11.906c1.518,1.166,3.121,2.238,4.767,3.221c0.456,0.281,0.922,0.576,1.4,0.862
	c0.194,0.118,0.498,0.247,0.598,0.464c0.209,0.447-0.337,0.879-0.609,1.151c-0.621,0.618-1.342,1.145-2.107,1.56
	c-0.38,0.204-0.747,0.415-1.206,0.309C8.045,47.089,6.864,46.333,5.686,45.825z M20.986,52.33c-0.673,0.289-1.664,0.04-2.368-0.035
	c-1.551-0.181-3.08-0.472-4.58-0.854c-0.659-0.161-1.465-0.294-2.046-0.655c-0.543-0.35-1.04-0.987-1.422-1.494
	c-0.158-0.223-0.349-0.46-0.264-0.755c0.109-0.304,0.507-0.43,0.762-0.576c0.627-0.343,1.186-0.733,1.735-1.185
	c1.584-1.331,3.001-3.094,4.066-4.867c2.657-4.437,4.123-9.501,5.267-14.512c0.32-1.402,0.51-2.914,0.584-4.36
	c0.032-0.59-0.191-1.529,0.172-2.029c0.443-0.61,1.655-0.881,2.327-1.179c2.006-0.864,4.007-1.829,6.146-2.364
	c0.595-0.158,1.197-0.303,1.8-0.456c0.261-0.058,0.575-0.164,0.831-0.028c0.254,0.146,0.237,0.509,0.258,0.767
	c0.038,0.698,0.025,1.417-0.012,2.118c-0.137,2.943-0.329,5.826-0.785,8.746c-0.298,1.913-0.621,3.793-1.105,5.668
	c-1.336,5.155-3.977,9.843-7.291,13.991C23.974,49.633,22.651,51.612,20.986,52.33z M32.7,50.517
	c-0.609,0.375-1.428,0.546-2.113,0.736c-1.789,0.51-3.618,0.873-5.457,1.067c-0.418,0.032-1.509,0.32-1.87,0.055
	c-0.269-0.194,0.049-0.549,0.194-0.704c0.507-0.593,1.044-1.153,1.557-1.729c2.245-2.504,4.126-5.453,5.717-8.406
	c2.756-5.116,3.735-11.053,4.312-16.791c0.175-1.876,0.252-3.784,0.252-5.662c0-0.601-0.238-1.83,0.095-2.336
	c0.363-0.527,1.797-0.386,2.368-0.427c1.872-0.16,3.676-0.215,5.543,0.029c0.595,0.081,1.449,0.081,1.987,0.381
	c0.625,0.372,0.353,1.893,0.34,2.51c-0.052,2.533-0.389,5.118-0.835,7.61c-0.87,4.844-2.079,9.582-4.405,13.961
	c-0.934,1.783-2.15,3.429-3.384,5.015c-0.921,1.185-1.864,2.31-2.914,3.381C33.645,49.667,33.26,50.182,32.7,50.517z M43.758,43.796
	c-1.647,1.634-3.618,3.012-5.599,4.206c-0.472,0.269-0.937,0.543-1.415,0.788c-0.149,0.078-0.41,0.263-0.572,0.149
	c-0.207-0.157-0.006-0.415,0.103-0.556c0.352-0.453,0.733-0.893,1.083-1.345c1.505-1.869,3.078-3.876,4.143-6.038
	c1.283-2.594,2.44-5.408,3.181-8.221c0.739-2.768,1.125-5.609,1.525-8.439c0.243-1.715,0.393-3.413,0.466-5.141
	c0.028-0.44-0.172-1.54,0.175-1.867c0.274-0.238,0.719,0.008,1.01,0.115c0.899,0.335,1.86,0.768,2.64,1.343
	c0.499,0.39,0.622,1.11,0.773,1.697c0.369,1.435,0.607,2.949,0.759,4.418c0.117,1.12,0.337,2.33,0.231,3.447
	C51.735,34.242,47.809,39.745,43.758,43.796z"/>
</svg>
