<?xml version="1.0" encoding="iso-8859-1"?>
<!-- Generator: Adobe Illustrator 16.0.4, SVG Export Plug-In . SVG Version: 6.00 Build 0)  -->
<!DOCTYPE svg PUBLIC "-//W3C//DTD SVG 1.1//EN" "http://www.w3.org/Graphics/SVG/1.1/DTD/svg11.dtd">
<svg version="1.1" id="Capa_1" xmlns="http://www.w3.org/2000/svg" xmlns:xlink="http://www.w3.org/1999/xlink" x="0px" y="0px"
	 width="50.967px" height="50.409px" viewBox="0 0 50.967 50.409" style="enable-background:new 0 0 50.967 50.409;"
	 xml:space="preserve">
<g>
	<path id="path3500" style="fill:#040606;" d="M2.751,36.695c-0.813,0.761-1.474,1.377-1.474,1.377s-3.808,3.55,1.728,9.79
		c2.198,2.48,4.822,2.723,6.684,2.468c1.367-0.188,3.05-1.253,3.857-1.959c0.807-0.706,0.704-2.104-0.228-3.122L5.913,37.16
		C4.98,36.142,3.564,35.934,2.751,36.695"/>
	<path id="path3502" style="fill:#040606;" d="M21.535,14.263c0.488-1.292,1.132-1.182,1.3,0.189l0.08,0.66
		c0.167,1.371,0.022,3.569-0.445,4.867c-0.659,1.833-1.583,3.69-2.037,1.356C19.991,19.062,20.797,16.218,21.535,14.263z
		 M33.447,28.8c1.314-0.421,1.74-0.135,0.941,0.608c-0.801,0.745-2.498,1.753-3.847,2.047c-1.054,0.229-2.241,0.375-3.091,0.148
		C26.154,31.258,30.536,29.732,33.447,28.8L33.447,28.8z M19.399,43.242l0.837-0.734c1.037-0.912,2.958-1.946,4.288-2.314
		l24.655-6.792c1.331-0.368,2.105-1.416,1.661-2.313c-0.445-0.898-1.951-1.131-3.29-1.469c-0.195-0.049-0.384-0.108-0.566-0.174
		c-1.297-0.472-1.783-1.835-1.31-2.593c0.475-0.758,1.079-1.387,1.349-1.396c0.271-0.01-0.015-0.774-0.671-1.693
		c-0.655-0.919-2.269-1.688-3.56-1.879c-1.289-0.191-2.113-1.307-1.86-2.367c0.251-1.062-0.111-2.568-0.823-3.354
		c-0.712-0.785-2.339-1.211-3.609-0.974c-1.271,0.236-2.223-0.684-2.125-2.056c0.098-1.373-0.353-2.96-1.013-3.539
		c-0.66-0.578-2.129-0.656-3.265-0.19c-1.138,0.465-2.037-0.247-2.009-1.592c0.027-1.344-0.432-2.79-1.033-3.219
		c-0.601-0.429-1.81-0.524-2.688-0.228c-0.879,0.295-1.46-0.083-1.298-0.847c0.162-0.763-0.653-1.979-1.851-2.665
		c-0.375-0.216-0.723-0.41-1.04-0.584c-1.212-0.663-2.494-0.054-2.825,1.286l-6.34,25.557c-0.333,1.34-1.419,3.191-2.427,4.135
		l-0.095,0.088c-1.008,0.943-1.068,2.533-0.136,3.553l7.476,8.161C16.765,44.066,18.362,44.153,19.399,43.242"/>
</g>
<g>
</g>
<g>
</g>
<g>
</g>
<g>
</g>
<g>
</g>
<g>
</g>
<g>
</g>
<g>
</g>
<g>
</g>
<g>
</g>
<g>
</g>
<g>
</g>
<g>
</g>
<g>
</g>
<g>
</g>
</svg>
