<?xml version="1.0" encoding="iso-8859-1"?>
<!-- Generator: Adobe Illustrator 16.0.4, SVG Export Plug-In . SVG Version: 6.00 Build 0)  -->
<!DOCTYPE svg PUBLIC "-//W3C//DTD SVG 1.1//EN" "http://www.w3.org/Graphics/SVG/1.1/DTD/svg11.dtd">
<svg version="1.1" id="Capa_1" xmlns="http://www.w3.org/2000/svg" xmlns:xlink="http://www.w3.org/1999/xlink" x="0px" y="0px"
	 width="42.846px" height="42.799px" viewBox="0 0 42.846 42.799" style="enable-background:new 0 0 42.846 42.799;"
	 xml:space="preserve">
<path style="fill-rule:evenodd;clip-rule:evenodd;fill:#262626;" d="M40.173,11.11c-0.979-1.764-2.274-3.665-3.831-4.965
	c-1.165-0.968-2.222-1.976-3.499-2.807c-3.263-2.113-7.101-3.221-10.97-3.33c-2.664-0.076-5.282,0.378-7.791,1.248
	C8.236,3.264,3.407,8.213,1.294,13.972c-1.347,3.663-1.638,7.715-0.895,11.537C1.342,30.328,4,34.672,7.737,37.829
	c7.792,6.584,19.645,6.652,27.449,0.048c2.36-1.987,4.319-4.473,5.65-7.273C43.752,24.459,43.464,17.043,40.173,11.11z
	 M40.661,14.16c0.488,1.291,0.778,2.37,0.511,3.745c-0.068,0.387-0.15,0.752-0.274,1.125c-0.048,0.139-0.082,0.328-0.232,0.404
	c-0.206,0.111-0.414-0.064-0.591-0.169c-0.43-0.264-0.887-0.481-1.36-0.676c-1.562-0.63-3.434-0.929-5.12-0.904
	c-2.705,0.035-5.379,0.501-7.917,1.441c-0.997,0.368-1.97,0.806-2.935,1.231c-0.36,0.159-0.825,0.537-1.213,0.524
	c-0.566-0.021-1.254-0.718-1.712-1.016c-1.053-0.661-2.016-1.4-3.006-2.155c-0.566-0.437-1.228-0.856-1.714-1.397
	c-0.112-0.128-0.16-0.339-0.015-0.465c0.367-0.325,0.972-0.497,1.399-0.733c1.74-0.929,3.598-1.705,5.425-2.463
	c3.993-1.666,8.493-2.533,12.801-1.866c1.886,0.29,3.825,0.787,5.293,2.068C40.354,13.167,40.497,13.74,40.661,14.16z M35.208,6.13
	c1.229,1.01,2.311,2.374,3.189,3.698c0.216,0.32,0.422,0.637,0.62,0.963c0.059,0.105,0.188,0.268,0.09,0.382
	c-0.164,0.18-0.776-0.171-0.967-0.242c-0.933-0.355-1.949-0.593-2.92-0.761c-3.47-0.603-7.114-0.244-10.473,0.765
	c-1.904,0.58-3.689,1.334-5.499,2.145c-0.811,0.359-1.637,0.674-2.428,1.081c-0.613,0.318-1.237,0.634-1.857,0.939
	c-0.223,0.113-0.519,0.342-0.765,0.149c-0.301-0.228-0.519-0.668-0.743-0.974c-0.668-0.943-1.257-1.986-1.671-3.064
	c-0.129-0.352-0.581-1.097-0.343-1.448c0.214-0.296,0.801-0.483,1.113-0.673c1.19-0.739,2.485-1.274,3.781-1.799
	c4.413-1.796,8.999-2.75,13.773-2.38C31.822,5.042,33.805,4.982,35.208,6.13z M17.317,1.434c1.261-0.686,3.064-0.676,4.472-0.61
	c2.811,0.13,5.545,0.709,8.112,1.877c0.821,0.375,1.712,0.781,2.442,1.312c0.571,0.415-0.454,0.341-0.677,0.325
	c-0.994-0.075-1.989-0.196-2.994-0.196c-2.372,0-4.758,0.137-7.072,0.67c-1.831,0.415-3.549,1.112-5.302,1.745
	c-1.329,0.479-2.671,1.073-3.882,1.798c-0.271,0.161-1.019,0.783-1.331,0.546c-0.204-0.143-0.21-0.613-0.254-0.834
	c-0.145-0.829-0.331-1.838,0.141-2.6c0.327-0.535,1.175-0.941,1.683-1.284C14.15,3.157,15.724,2.297,17.317,1.434z M4.45,9.874
	c0.097-0.477,0.501-0.897,0.797-1.272C6.034,7.594,6.991,6.256,8.27,5.884C8.686,5.765,9.417,5.5,9.849,5.692
	c0.305,0.132,0.139,1.01,0.165,1.304c0.114,1.247,0.36,2.491,0.818,3.662c0.841,2.097,1.874,4.113,3.425,5.792
	c0.687,0.753,1.495,1.391,2.302,2.013c1.113,0.863,2.314,1.583,3.468,2.38c0.361,0.252,1.084,0.516,1.217,0.956
	c0.166,0.569,0.039,1.254-0.026,1.833c-0.14,1.41-0.422,2.803-0.809,4.168c-0.124,0.445-0.242,0.887-0.387,1.327
	c-0.086,0.24-0.19,0.441-0.48,0.367c-0.522-0.126-1.083-0.541-1.545-0.807c-1.146-0.657-2.244-1.365-3.285-2.17
	C10.31,23.141,6.3,18.439,4.816,12.997C4.547,11.997,4.23,10.923,4.45,9.874z M1.288,17.055c0.308-1.406,0.75-2.779,1.341-4.097
	c0.196-0.44,0.41-0.888,0.643-1.316c0.059-0.12,0.174-0.375,0.356-0.318c0.145,0.049,0.148,0.289,0.172,0.413
	c0.074,0.397,0.15,0.783,0.267,1.171c0.448,1.554,1.07,3.056,1.817,4.493c1.939,3.715,4.95,7.031,8.269,9.568
	c1.161,0.885,2.376,1.72,3.661,2.426c0.389,0.215,0.781,0.418,1.173,0.622c0.158,0.085,0.391,0.157,0.48,0.328
	c0.183,0.365-0.218,0.971-0.352,1.308c-0.494,1.187-1.011,2.369-1.697,3.458c-0.208,0.313-0.619,1.124-1.054,1.058
	c-0.46-0.072-1.061-0.6-1.459-0.851c-1.143-0.721-2.267-1.438-3.329-2.278c-4.55-3.628-8.613-8.545-10.438-14.155
	C0.945,18.312,1.161,17.626,1.288,17.055z M10.912,37.699c-1.988-0.852-4.065-1.91-5.573-3.492c-0.426-0.44-0.754-0.995-1.095-1.501
	C3.191,31.123,2.415,29.39,1.818,27.6c-0.557-1.673-0.879-3.449-0.97-5.202c-0.023-0.463-0.056-0.933-0.029-1.395
	c0.006-0.111,0.018-0.483,0.221-0.365c0.146,0.089,0.22,0.328,0.282,0.474c0.202,0.415,0.376,0.842,0.561,1.259
	c0.604,1.277,1.381,2.522,2.186,3.673c2.029,2.893,4.556,5.6,7.351,7.747c0.988,0.759,2.031,1.456,3.102,2.096
	c0.297,0.183,0.6,0.375,0.911,0.561c0.126,0.077,0.324,0.161,0.389,0.302c0.136,0.291-0.219,0.572-0.396,0.749
	c-0.404,0.402-0.873,0.745-1.371,1.015c-0.247,0.133-0.486,0.27-0.785,0.201C12.447,38.522,11.679,38.03,10.912,37.699z
	 M20.868,41.932c-0.438,0.188-1.083,0.026-1.541-0.023c-1.009-0.118-2.004-0.307-2.98-0.556c-0.429-0.105-0.953-0.191-1.331-0.426
	c-0.353-0.228-0.677-0.642-0.925-0.972c-0.103-0.145-0.227-0.299-0.172-0.491c0.071-0.198,0.33-0.28,0.496-0.375
	c0.408-0.223,0.772-0.477,1.129-0.771c1.031-0.866,1.953-2.013,2.646-3.167c1.729-2.887,2.683-6.182,3.427-9.443
	c0.208-0.912,0.332-1.896,0.38-2.837c0.021-0.384-0.124-0.995,0.112-1.32c0.288-0.397,1.077-0.573,1.514-0.767
	c1.305-0.562,2.607-1.19,3.999-1.538c0.387-0.103,0.779-0.197,1.171-0.297c0.17-0.038,0.374-0.107,0.541-0.018
	c0.165,0.095,0.154,0.331,0.168,0.499c0.025,0.454,0.016,0.922-0.008,1.378c-0.089,1.915-0.214,3.791-0.511,5.691
	c-0.194,1.245-0.404,2.468-0.719,3.688c-0.869,3.354-2.588,6.405-4.744,9.104C22.812,40.177,21.951,41.465,20.868,41.932z
	 M28.49,40.752c-0.396,0.244-0.929,0.355-1.375,0.479c-1.164,0.332-2.354,0.568-3.551,0.694c-0.272,0.021-0.982,0.208-1.217,0.036
	c-0.175-0.126,0.032-0.357,0.126-0.458c0.33-0.386,0.679-0.75,1.013-1.125c1.461-1.629,2.685-3.548,3.72-5.47
	c1.793-3.329,2.43-7.192,2.806-10.926c0.114-1.221,0.164-2.462,0.164-3.684c0-0.391-0.155-1.191,0.062-1.52
	c0.236-0.343,1.169-0.251,1.541-0.278c1.218-0.104,2.392-0.14,3.607,0.019c0.387,0.053,0.943,0.053,1.293,0.248
	c0.407,0.242,0.23,1.232,0.221,1.633c-0.034,1.648-0.253,3.33-0.543,4.952c-0.566,3.152-1.353,6.235-2.866,9.084
	c-0.608,1.16-1.399,2.231-2.202,3.263c-0.599,0.771-1.213,1.503-1.896,2.2C29.105,40.199,28.854,40.534,28.49,40.752z
	 M35.685,36.379c-1.072,1.063-2.354,1.96-3.643,2.737c-0.307,0.175-0.61,0.353-0.921,0.513c-0.097,0.051-0.267,0.171-0.372,0.097
	c-0.135-0.102-0.004-0.27,0.067-0.362c0.229-0.295,0.477-0.581,0.705-0.875c0.979-1.216,2.003-2.522,2.696-3.929
	c0.835-1.688,1.588-3.519,2.07-5.349c0.481-1.801,0.732-3.65,0.992-5.491c0.158-1.116,0.256-2.221,0.303-3.345
	c0.018-0.286-0.112-1.002,0.114-1.215c0.178-0.155,0.468,0.005,0.657,0.075c0.585,0.218,1.21,0.5,1.718,0.874
	c0.325,0.254,0.405,0.722,0.503,1.104c0.24,0.934,0.395,1.919,0.494,2.875c0.076,0.729,0.219,1.516,0.15,2.243
	C40.876,30.162,38.321,33.743,35.685,36.379z"/>
<g>
</g>
<g>
</g>
<g>
</g>
<g>
</g>
<g>
</g>
<g>
</g>
<g>
</g>
<g>
</g>
<g>
</g>
<g>
</g>
<g>
</g>
<g>
</g>
<g>
</g>
<g>
</g>
<g>
</g>
</svg>
