<?xml version="1.0" encoding="utf-8"?>
<!-- Generator: Adobe Illustrator 16.0.4, SVG Export Plug-In . SVG Version: 6.00 Build 0)  -->
<!DOCTYPE svg PUBLIC "-//W3C//DTD SVG 1.1//EN" "http://www.w3.org/Graphics/SVG/1.1/DTD/svg11.dtd">
<svg version="1.1" id="Capa_1" xmlns="http://www.w3.org/2000/svg" xmlns:xlink="http://www.w3.org/1999/xlink" x="0px" y="0px"
	 width="64px" height="64px" viewBox="0 0 64 64" enable-background="new 0 0 64 64" xml:space="preserve">
<g>
	<path fill="#0E0F0F" d="M52.061,49.898c-5.598-0.752-8.533-4.393-9.297-9.513c0.049-0.31,0.057-0.628,0.01-0.952
		c-0.461-3.234-0.383-6.356,0.406-9.452c0.549,0.346,1.069,0.735,1.545,1.187c1.15,1.094,0.944,2.386,0.445,3.746
		c-0.493,1.345,0.673,2.858,1.939,3.161c1.515,0.359,2.67-0.602,3.162-1.941c2.229-6.087-2.5-9.969-7.494-12.14
		c-0.633-0.69-1.446-1.207-2.293-1.409c-0.53-0.126-1.035-0.152-1.512-0.1c-1.712-4.288-3.141-8.637-4.332-13.112
		c-0.539-2.033-2.682-2.192-4.014-1.237c0.06-0.279,0.091-0.569,0.081-0.867c-0.068-1.962-1.713-3.498-3.676-3.431
		c-1.963,0.067-3.498,1.712-3.431,3.674c0.067,1.963,1.713,3.5,3.676,3.432c0.875-0.03,1.665-0.376,2.267-0.923
		c-0.02,0.287,0.006,0.594,0.093,0.918c1.339,5.032,2.976,9.907,4.983,14.713c0.101,0.242,0.228,0.453,0.368,0.639
		c-1.461,4.26-1.762,8.926-1.131,13.368c-3.957,6.529-3.689,13.884,1.813,19.708c2.327,2.462,5.892-1.386,3.578-3.833
		c-3.41-3.608-3.485-7.682-1.716-11.588c0.228,0.037,0.466,0.055,0.712,0.058C40.001,49.747,44.221,54.109,50.84,55
		C54.162,55.447,55.404,50.35,52.061,49.898z"/>
	<circle fill="#0E0F0F" cx="42.662" cy="17.723" r="4.502"/>
	<path fill="#0E0F0F" d="M11.283,10.362L11.25,10.37h-0.5l0.028,0.112h-0.003l3.033,12.865h7.66l1.012-5.203l0.033-0.008
		l-0.018-0.068l1.454-7.472l0.074-0.227H11.286L11.283,10.362z M12.298,14.665l1.078,1.66l-0.438,1.056L12.298,14.665z
		 M19.301,16.245l1.068-1.754l0.022,0.039l0.008-0.013l1.086,1.786l-1.073,1.766L19.301,16.245z M20.163,18.418l-1.147,1.889
		l-1.095-1.798l1.149-1.889L20.163,18.418z M19.034,15.928l-1.088-1.79l1.104-1.815l1.088,1.789L19.034,15.928z M18.802,16.303
		l-1.073,1.766l-1.109-1.825l1.066-1.753l0.023,0.039l0.008-0.013L18.802,16.303z M17.461,18.387l-1.129,1.856l-1.093-1.798
		l1.129-1.856L17.461,18.387z M16.332,15.96l-1.107-1.821l1.124-1.846l1.107,1.82L16.332,15.96z M16.081,16.303l-1.073,1.766
		l-1.111-1.825l1.068-1.754l0.023,0.039l0.007-0.013L16.081,16.303z M13.609,15.961l-1.129-1.738l1.161-1.909l1.093,1.798
		L13.609,15.961z M13.635,20.333l-0.542-2.297l0.581-1.403l1.106,1.817L13.635,20.333z M14.221,22.823l-0.387-1.643l0.999,1.643
		H14.221z M13.937,20.592l1.074-1.766l1.11,1.825l-1.074,1.765L13.937,20.592z M15.258,22.823L16.368,21l1.109,1.823H15.258z
		 M16.58,20.592l1.074-1.766l1.109,1.825l-1.073,1.765L16.58,20.592z M17.903,22.823l1.146-1.887l1.148,1.887H17.903z
		 M21.034,22.823h-0.41l0.604-0.991L21.034,22.823z M21.443,20.72l-1.033,1.697l-1.109-1.825l1.075-1.766l1.087,1.789L21.443,20.72z
		 M21.574,20.042l-0.951-1.565l1.098-1.806l0.293,1.117L21.574,20.042z M22.188,16.896l-0.149-0.57l0.416-0.807L22.188,16.896z
		 M23.154,11.926l-0.256,1.31l-0.796-1.31H23.154z M22.787,13.809l-0.064,0.337l-0.96,1.857l-1.133-1.864l1.18-1.939L22.787,13.809z
		 M21.642,11.926l0.048,0.078l-0.128-0.078H21.642z M21.516,11.926L20.4,13.761l-0.023-0.039l-0.007,0.012l-1.101-1.808H21.516z
		 M19.09,11.926l-0.105,0.063l-0.105-0.063H19.09z M18.832,11.925L18.832,11.925l-1.115,1.836l-0.024-0.039l-0.007,0.012
		l-1.101-1.809H18.832z M16.407,11.927l-0.125,0.075l-0.124-0.075H16.407z M16.111,11.927l-1.116,1.835l-0.023-0.039l-0.007,0.012
		l-1.1-1.808H16.111z M13.686,11.927l-0.111,0.067l-0.112-0.067H13.686z M13.417,11.927l-1.174,1.931l-0.082-0.125l-0.072,0.046
		l-0.437-1.852H13.417z"/>
</g>
</svg>
