<?xml version="1.0" encoding="iso-8859-1"?>
<!-- Generator: Adobe Illustrator 16.0.4, SVG Export Plug-In . SVG Version: 6.00 Build 0)  -->
<!DOCTYPE svg PUBLIC "-//W3C//DTD SVG 1.1//EN" "http://www.w3.org/Graphics/SVG/1.1/DTD/svg11.dtd">
<svg version="1.1" id="Capa_1" xmlns="http://www.w3.org/2000/svg" xmlns:xlink="http://www.w3.org/1999/xlink" x="0px" y="0px"
	 width="41.405px" height="41.408px" viewBox="0 0 41.405 41.408" style="enable-background:new 0 0 41.405 41.408;"
	 xml:space="preserve">
<g>
	<path style="fill:#262626;" d="M18.76,0.079C14.128,0.511,9.606,2.505,6.052,6.056c-3.553,3.551-5.545,8.073-5.976,12.711
		c5.086,0.589,10.495,3.19,14.934,7.628c4.441,4.442,7.045,9.855,7.63,14.936c4.644-0.429,9.156-2.425,12.713-5.975
		c3.553-3.549,5.545-8.074,5.973-12.711c-5.074-0.587-10.492-3.188-14.931-7.628C21.957,10.578,19.353,5.165,18.76,0.079z"/>
	<path style="fill:#262626;" d="M41.405,20.079c-0.152-5.093-2.164-10.139-6.049-14.026C31.472,2.166,26.421,0.157,21.327,0
		c0.574,4.448,2.936,9.227,6.895,13.188C32.184,17.147,36.956,19.505,41.405,20.079z"/>
	<path style="fill:#262626;" d="M0,21.332c0.15,5.093,2.166,10.14,6.052,14.024c3.884,3.885,8.93,5.902,14.021,6.052
		c-0.572-4.441-2.931-9.22-6.892-13.181C9.224,24.268,4.446,21.909,0,21.332z"/>
</g>
<g>
</g>
<g>
</g>
<g>
</g>
<g>
</g>
<g>
</g>
<g>
</g>
<g>
</g>
<g>
</g>
<g>
</g>
<g>
</g>
<g>
</g>
<g>
</g>
<g>
</g>
<g>
</g>
<g>
</g>
</svg>
