<?xml version="1.0" encoding="utf-8"?>
<!-- Generator: Adobe Illustrator 15.0.0, SVG Export Plug-In . SVG Version: 6.00 Build 0)  -->
<!DOCTYPE svg PUBLIC "-//W3C//DTD SVG 1.1//EN" "http://www.w3.org/Graphics/SVG/1.1/DTD/svg11.dtd">
<svg version="1.1" id="Layer_1" xmlns="http://www.w3.org/2000/svg" xmlns:xlink="http://www.w3.org/1999/xlink" x="0px" y="0px"
	 width="64px" height="64px" viewBox="0 0 64 64" enable-background="new 0 0 64 64" xml:space="preserve">
<g>
	<path fill="#231F20" d="M37.137,29.394l3.967-22.982l5.948-2.979L54.5,6.023l-6.702,20.722l-0.128,0.062
		c-0.945,0.46-4.46,2.006-10.104,2.545L37.137,29.394z M32.008,60.587c-4.797,0-8.7-3.905-8.7-8.704
		c0-0.947,0.154-1.699,0.474-2.301h0.001h16.444l0,0c0.324,0.607,0.482,1.361,0.482,2.301C40.71,56.682,36.804,60.587,32.008,60.587
		z M29.586,31.065l0.4,0.028c1.105,0.078,2.136,0.116,3.07,0.116c0.563,0,1.161-0.015,1.84-0.044l0.405-0.017L32.098,47.62
		L29.586,31.065z M35.479,29.449l-0.263,0.014c-1.799,0.1-3.642,0.082-5.498-0.053l-0.269-0.02L26.287,6.336l5.839-2.888
		l7.333,2.959L35.479,29.449z M27.376,29.25c-3.636-0.398-7.339-1.233-11.012-2.484l-0.158-0.053L9.5,5.979l6.516-2.565l8.651,3.05
		L27.8,29.296L27.376,29.25z M17.179,28.708c3.548,1.129,7.08,1.886,10.496,2.244l0.26,0.028l2.61,17.176l-0.64-0.003
		c-0.281-0.003-0.565-0.003-0.84-0.003c-4.314,0-5.705,0.014-6.129,0.066l-6.373-19.704L17.179,28.708z M36.973,48.146l-3.343,0.009
		l3.332-17.071l0.258-0.022c4.421-0.372,7.62-1.364,9.524-2.129l0.657-0.264l-6.317,19.513
		C40.546,48.157,39.343,48.146,36.973,48.146z"/>
</g>
</svg>
