<?xml version="1.0" encoding="iso-8859-1"?>
<!-- Generator: Adobe Illustrator 16.0.4, SVG Export Plug-In . SVG Version: 6.00 Build 0)  -->
<!DOCTYPE svg PUBLIC "-//W3C//DTD SVG 1.1//EN" "http://www.w3.org/Graphics/SVG/1.1/DTD/svg11.dtd">
<svg version="1.1" id="Capa_1" xmlns="http://www.w3.org/2000/svg" xmlns:xlink="http://www.w3.org/1999/xlink" x="0px" y="0px"
	 width="40.975px" height="23.831px" viewBox="0 0 40.975 23.831" style="enable-background:new 0 0 40.975 23.831;"
	 xml:space="preserve">
<path style="fill:#262626;" d="M27.317,10.173V0H13.658v10.173H0v13.658h13.658h13.659h13.657V10.173H27.317z M9.919,20.835H4.552
	v-1.112c0.376-0.318,0.747-0.639,1.121-0.958c0.376-0.319,0.725-0.638,1.049-0.953c0.679-0.659,1.146-1.184,1.399-1.573
	c0.25-0.389,0.378-0.809,0.378-1.258c0-0.412-0.136-0.734-0.408-0.967c-0.271-0.233-0.648-0.35-1.135-0.35
	c-0.326,0-0.675,0.058-1.053,0.171c-0.373,0.113-0.741,0.287-1.1,0.521H4.75v-1.119c0.25-0.122,0.587-0.236,1.009-0.34
	c0.42-0.103,0.827-0.154,1.222-0.154c0.812,0,1.449,0.196,1.911,0.59c0.46,0.391,0.69,0.923,0.69,1.593
	c0,0.302-0.036,0.584-0.112,0.844c-0.077,0.261-0.189,0.509-0.34,0.744c-0.137,0.219-0.301,0.437-0.486,0.647
	c-0.187,0.214-0.412,0.45-0.679,0.708c-0.379,0.374-0.771,0.735-1.175,1.084c-0.406,0.35-0.783,0.674-1.135,0.972h4.264V20.835z
	 M22.926,9.679h-4.378V8.854h1.686V3.431h-1.686V2.692c0.227,0,0.471-0.02,0.732-0.059c0.261-0.037,0.457-0.092,0.593-0.164
	c0.166-0.092,0.297-0.206,0.394-0.346c0.097-0.139,0.152-0.326,0.167-0.562h0.841v7.292h1.651V9.679z M37.54,19.385
	c-0.138,0.323-0.34,0.604-0.593,0.845c-0.286,0.267-0.622,0.464-1.007,0.592c-0.386,0.127-0.812,0.191-1.272,0.191
	c-0.473,0-0.936-0.057-1.394-0.169c-0.457-0.112-0.831-0.235-1.123-0.368v-1.193h0.084c0.326,0.213,0.703,0.39,1.143,0.531
	c0.437,0.141,0.859,0.21,1.266,0.21c0.24,0,0.498-0.04,0.765-0.119c0.272-0.079,0.492-0.198,0.66-0.354
	c0.173-0.167,0.307-0.352,0.393-0.554s0.126-0.457,0.126-0.765c0-0.305-0.048-0.557-0.146-0.757c-0.097-0.2-0.232-0.356-0.4-0.472
	c-0.175-0.118-0.381-0.199-0.623-0.243c-0.244-0.044-0.508-0.065-0.788-0.065h-0.517v-0.947h0.403c0.577,0,1.038-0.121,1.384-0.363
	c0.345-0.241,0.515-0.596,0.515-1.06c0-0.206-0.044-0.386-0.128-0.54c-0.09-0.154-0.21-0.28-0.368-0.38
	c-0.164-0.099-0.337-0.167-0.523-0.205c-0.188-0.038-0.399-0.058-0.636-0.058c-0.364,0-0.747,0.065-1.153,0.193
	c-0.408,0.131-0.792,0.313-1.155,0.549h-0.056V12.69c0.269-0.134,0.631-0.256,1.081-0.368c0.454-0.112,0.889-0.168,1.312-0.168
	c0.414,0,0.78,0.037,1.097,0.113c0.316,0.077,0.601,0.198,0.856,0.366c0.274,0.183,0.48,0.403,0.623,0.662
	c0.142,0.26,0.212,0.562,0.212,0.908c0,0.473-0.168,0.885-0.499,1.237c-0.334,0.352-0.727,0.574-1.181,0.666v0.08
	c0.183,0.029,0.393,0.093,0.629,0.19c0.235,0.096,0.437,0.218,0.599,0.362c0.184,0.164,0.334,0.369,0.452,0.617
	c0.118,0.247,0.178,0.567,0.178,0.96C37.754,18.705,37.683,19.061,37.54,19.385z"/>
<g>
</g>
<g>
</g>
<g>
</g>
<g>
</g>
<g>
</g>
<g>
</g>
<g>
</g>
<g>
</g>
<g>
</g>
<g>
</g>
<g>
</g>
<g>
</g>
<g>
</g>
<g>
</g>
<g>
</g>
</svg>
