<?xml version="1.0" encoding="utf-8"?>
<!-- Generator: Adobe Illustrator 15.0.0, SVG Export Plug-In . SVG Version: 6.00 Build 0)  -->
<!DOCTYPE svg PUBLIC "-//W3C//DTD SVG 1.1//EN" "http://www.w3.org/Graphics/SVG/1.1/DTD/svg11.dtd">
<svg version="1.1" id="Layer_1" xmlns="http://www.w3.org/2000/svg" xmlns:xlink="http://www.w3.org/1999/xlink" x="0px" y="0px"
	 width="64px" height="64px" viewBox="0 0 64 64" enable-background="new 0 0 64 64" xml:space="preserve">
<g>
	<g>
		<path fill="#231F20" d="M51.355,26.645c-4.604,0-8.347,3.745-8.347,8.346s3.742,8.346,8.347,8.346c4.6,0,8.344-3.744,8.344-8.346
			S55.955,26.645,51.355,26.645z"/>
	</g>
	<g>
		<path fill="#231F20" d="M46.072,48.007c-1.419-0.738-4.536-1.367-4.536-1.367c-0.047-0.008-0.094-0.015-0.141-0.022l-0.103-0.015
			c0.854-1.544,1.146-3.438,0.758-5.315c-0.402-1.947-1.47-3.654-2.938-4.705c1.793-8.66,5.64-13.539,11.756-14.912
			c3.029-0.679,3.853-3.171,3.64-5.099c-0.261-2.341-2.121-4.831-5.059-4.831c-0.401,0-0.816,0.047-1.23,0.14
			c-10.329,2.318-16.853,10.789-19.389,25.18c-3.69,1.127-8.525,2.645-13.375,4.428c-2.43,0.894-4.22,2.612-4.998,4.746
			c-2.43,0.361-4.044,2.39-5.4,4.094l-0.757,0.936l1.232,0.996l0.827-1.016c1.953-3.176,4.902-3.278,4.902-3.278
			c0.47-0.081,0.89-0.118,1.283-0.118c2.052,0,4.058,0.854,5.507,2.35l0.798,0.82l0.795-0.822c1.445-1.493,3.451-2.348,5.503-2.348
			c2.35,0,4.546,1.068,6.024,2.932l0.871,1.101l0.87-1.101c1.854-2.342,4.856-3.398,7.741-2.73l0.744,0.177
			c0,0,2.673,0.53,3.943,1.193c2.004,1.145,3.23,1.68,5.298,1.79l0.626,0.035l0.089-1.589l-0.63-0.032
			C48.994,49.532,47.575,48.791,46.072,48.007z"/>
	</g>
</g>
</svg>
