<?xml version="1.0" encoding="iso-8859-1"?>
<!-- Generator: Adobe Illustrator 16.0.4, SVG Export Plug-In . SVG Version: 6.00 Build 0)  -->
<!DOCTYPE svg PUBLIC "-//W3C//DTD SVG 1.1//EN" "http://www.w3.org/Graphics/SVG/1.1/DTD/svg11.dtd">
<svg version="1.1" id="Capa_1" xmlns="http://www.w3.org/2000/svg" xmlns:xlink="http://www.w3.org/1999/xlink" x="0px" y="0px"
	 width="39.152px" height="52.907px" viewBox="0 0 39.152 52.907" style="enable-background:new 0 0 39.152 52.907;"
	 xml:space="preserve">
<g>
	<path style="fill:#262626;" d="M34.753,39.518c0.396-0.209,0.677-0.613,0.677-1.093l-0.003-15.818h0.604v5.038h0
		c0,0.004,0,0.006,0,0.01c0,0.513,0.417,0.929,0.929,0.929c0.514,0,0.93-0.416,0.93-0.929c0-0.004,0-0.006,0-0.01v-5.419
		c-0.203-2.417-3.005-2.382-3.005-2.382h-4.419c-3.163,0.06-3.052,2.382-3.052,2.382l0,5.419h0.003c0,0.014-0.002,0.029-0.002,0.039
		c0,0.517,0.418,0.932,0.932,0.932c0.514,0,0.929-0.415,0.929-0.932c0-0.01-0.002-0.025-0.003-0.039h0.003V22.63h0.583L29.85,38.419
		c0,0.482,0.281,0.889,0.678,1.099h-4.551V27.201H17.53h-4.861v9.354H8.254c0.438-0.194,0.745-0.629,0.745-1.139L8.995,19.597h0.604
		v5.04h0.002c0,0.004,0,0.005,0,0.009c0,0.515,0.417,0.93,0.929,0.93c0.513,0,0.93-0.415,0.93-0.93c0-0.004,0-0.005,0-0.009v-5.42
		c-0.204-2.416-3.006-2.382-3.006-2.382H4.035c-3.163,0.061-3.052,2.382-3.052,2.382l0,5.42h0.002c0,0.015-0.002,0.027-0.002,0.039
		c0,0.515,0.418,0.933,0.932,0.933c0.514,0,0.928-0.418,0.928-0.933c0-0.012-0.001-0.024-0.003-0.039h0.003v-5.016h0.583
		L3.419,35.41c0,0.513,0.308,0.948,0.746,1.145H0v16.353h12.668h0.64h12.535h0.134h13.175v-13.39H34.753z M5.93,35.41L5.928,25.222
		h0.562v10.199l0.009,0.01c0.007,0.502,0.312,0.932,0.744,1.124H5.184C5.622,36.358,5.93,35.923,5.93,35.41z M12.239,51.835H1.072
		V37.626h11.167V51.835z M24.905,51.835H13.739V28.272h11.167V51.835z M32.362,38.419L32.359,28.23h0.563V38.43l0.009,0.008
		c0.008,0.475,0.284,0.873,0.676,1.08h-1.925C32.081,39.308,32.362,38.901,32.362,38.419z M38.08,51.835H26.913V40.59H38.08V51.835z
		"/>
	<path style="fill:#262626;" d="M22.2,41.475h-1.907v-8.428h-0.977c-0.018,0.271-0.08,0.488-0.19,0.65
		c-0.112,0.159-0.263,0.294-0.457,0.397c-0.153,0.085-0.38,0.147-0.684,0.191c-0.301,0.045-0.584,0.067-0.847,0.067v0.854h1.945
		v6.268h-1.945v0.954H22.2V41.475z"/>
	<path style="fill:#262626;" d="M10.004,48.188H4.975c0.416-0.352,0.861-0.734,1.338-1.146c0.476-0.412,0.939-0.839,1.388-1.278
		c0.312-0.305,0.58-0.585,0.8-0.835c0.221-0.25,0.413-0.507,0.575-0.767c0.175-0.276,0.308-0.568,0.398-0.875
		c0.089-0.309,0.136-0.641,0.136-0.996c0-0.79-0.271-1.418-0.818-1.88c-0.544-0.463-1.294-0.694-2.254-0.694
		c-0.465,0-0.946,0.06-1.442,0.182C4.601,40.02,4.204,40.154,3.908,40.3v1.318h0.062c0.422-0.275,0.856-0.48,1.3-0.614
		c0.444-0.135,0.856-0.202,1.237-0.202c0.573,0,1.021,0.138,1.341,0.412c0.321,0.274,0.48,0.654,0.48,1.141
		c0,0.531-0.15,1.026-0.446,1.485c-0.298,0.458-0.849,1.077-1.652,1.854c-0.381,0.375-0.793,0.747-1.235,1.126
		c-0.441,0.376-0.882,0.752-1.322,1.13v1.312h6.33V48.188z"/>
	<path style="fill:#262626;" d="M32.341,50.931c0.504,0,0.972-0.069,1.396-0.209c0.424-0.141,0.792-0.358,1.108-0.652
		c0.279-0.263,0.498-0.572,0.652-0.929c0.155-0.355,0.233-0.747,0.233-1.175c0-0.431-0.065-0.783-0.194-1.055
		c-0.13-0.272-0.296-0.499-0.497-0.677c-0.18-0.16-0.401-0.293-0.661-0.4c-0.259-0.106-0.49-0.177-0.691-0.209v-0.088
		c0.5-0.102,0.932-0.346,1.298-0.732c0.366-0.388,0.55-0.841,0.55-1.359c0-0.382-0.078-0.714-0.232-1
		c-0.155-0.283-0.384-0.527-0.684-0.728c-0.281-0.184-0.596-0.318-0.943-0.401c-0.348-0.085-0.75-0.127-1.206-0.127
		c-0.466,0-0.946,0.062-1.441,0.187c-0.497,0.122-0.893,0.258-1.191,0.404v1.312h0.064c0.396-0.259,0.819-0.459,1.267-0.602
		c0.449-0.142,0.872-0.214,1.27-0.214c0.259,0,0.492,0.021,0.696,0.062c0.205,0.042,0.396,0.118,0.579,0.228
		c0.17,0.108,0.306,0.247,0.401,0.415c0.097,0.172,0.144,0.37,0.144,0.596c0,0.511-0.188,0.897-0.567,1.165
		c-0.381,0.265-0.889,0.398-1.523,0.398h-0.442v1.042h0.565c0.311,0,0.599,0.023,0.869,0.073c0.267,0.048,0.495,0.137,0.683,0.266
		c0.19,0.125,0.338,0.299,0.445,0.518c0.107,0.221,0.161,0.498,0.161,0.834c0,0.339-0.05,0.619-0.145,0.841
		c-0.092,0.222-0.237,0.425-0.429,0.61c-0.185,0.169-0.425,0.301-0.723,0.389c-0.295,0.088-0.577,0.132-0.842,0.132
		c-0.446,0-0.911-0.078-1.394-0.232c-0.479-0.155-0.899-0.351-1.254-0.584h-0.094v1.312c0.323,0.147,0.735,0.283,1.237,0.404
		C31.31,50.868,31.821,50.931,32.341,50.931z"/>
	<circle style="fill:#262626;" cx="19.359" cy="2.401" r="2.401"/>
	<path style="fill:#262626;" d="M18.899,25.833l-0.001-11.108h0.613v11.12l0.011,0.008c0.009,0.747,0.614,1.347,1.361,1.347
		c0.751,0,1.362-0.608,1.362-1.361L22.241,9.237l5.885-6.043V3.192c0.002-0.002,0.002-0.005,0.006-0.007
		c0.396-0.395,0.396-1.038,0-1.434c-0.396-0.396-1.039-0.396-1.435,0c0,0-0.003,0.005-0.006,0.007L22.9,5.58h-7.365l-3.792-3.82
		c-0.002-0.001-0.005-0.003-0.005-0.003c-0.398-0.4-1.041-0.4-1.436-0.004c-0.397,0.396-0.397,1.039,0,1.434
		c0.002,0.002,0.004,0.005,0.006,0.007v0.002l5.861,6.02l-0.009,16.619c0,0.756,0.613,1.368,1.369,1.368
		C18.285,27.201,18.899,26.589,18.899,25.833z"/>
	<path style="fill:#262626;" d="M6.351,16.125c1.217,0,2.205-0.989,2.205-2.206c0-1.214-0.988-2.202-2.205-2.202
		c-1.215,0-2.202,0.988-2.202,2.202C4.149,15.136,5.136,16.125,6.351,16.125z"/>
	<circle style="fill:#262626;" cx="32.783" cy="16.929" r="2.204"/>
</g>
<g>
</g>
<g>
</g>
<g>
</g>
<g>
</g>
<g>
</g>
<g>
</g>
<g>
</g>
<g>
</g>
<g>
</g>
<g>
</g>
<g>
</g>
<g>
</g>
<g>
</g>
<g>
</g>
<g>
</g>
</svg>
