<?xml version="1.0" encoding="utf-8"?>
<!-- Generator: Adobe Illustrator 17.0.0, SVG Export Plug-In . SVG Version: 6.00 Build 0)  -->
<!DOCTYPE svg PUBLIC "-//W3C//DTD SVG 1.1//EN" "http://www.w3.org/Graphics/SVG/1.1/DTD/svg11.dtd">
<svg version="1.1" id="Capa_1" xmlns="http://www.w3.org/2000/svg" xmlns:xlink="http://www.w3.org/1999/xlink" x="0px" y="0px"
	 width="72px" height="72px" viewBox="-10.517 -10.795 72 72" enable-background="new -10.517 -10.795 72 72" xml:space="preserve">
<g>
	<path id="path3500" fill="#040606" d="M-3.27,39.738c-1.028,0.963-1.864,1.742-1.864,1.742s-4.817,4.49,2.186,12.383
		c2.78,3.137,6.099,3.444,8.454,3.122c1.729-0.238,3.858-1.585,4.879-2.478s0.89-2.661-0.288-3.949L0.73,40.326
		C-0.45,39.039-2.241,38.776-3.27,39.738"/>
	<path id="path3502" fill="#040606" d="M20.49,11.364c0.617-1.634,1.432-1.495,1.644,0.239l0.101,0.835
		c0.211,1.734,0.028,4.514-0.563,6.156c-0.834,2.319-2.002,4.667-2.577,1.715C18.537,17.434,19.556,13.837,20.49,11.364z
		 M35.557,29.752c1.662-0.533,2.201-0.171,1.19,0.769c-1.013,0.942-3.16,2.217-4.866,2.589c-1.333,0.29-2.835,0.474-3.91,0.187
		C26.332,32.861,31.875,30.931,35.557,29.752L35.557,29.752z M17.788,48.019l1.059-0.928c1.312-1.154,3.742-2.461,5.424-2.927
		l31.186-8.591c1.684-0.465,2.663-1.791,2.101-2.926c-0.563-1.136-2.468-1.431-4.161-1.858c-0.247-0.062-0.486-0.137-0.716-0.22
		c-1.641-0.597-2.255-2.321-1.657-3.28c0.601-0.959,1.365-1.754,1.706-1.766c0.343-0.013-0.019-0.979-0.849-2.141
		c-0.828-1.162-2.87-2.135-4.503-2.377c-1.63-0.242-2.673-1.653-2.353-2.994c0.317-1.343-0.14-3.248-1.041-4.242
		c-0.901-0.993-2.959-1.532-4.565-1.232c-1.608,0.299-2.812-0.865-2.688-2.601c0.124-1.737-0.447-3.744-1.281-4.476
		c-0.835-0.731-2.693-0.83-4.13-0.24c-1.439,0.588-2.577-0.312-2.541-2.014c0.034-1.7-0.546-3.529-1.307-4.072
		c-0.76-0.543-2.289-0.663-3.4-0.288c-1.112,0.373-1.847-0.105-1.642-1.071c0.205-0.965-0.826-2.503-2.341-3.371
		c-0.474-0.273-0.915-0.519-1.315-0.739C17.24-7.174,15.619-6.404,15.2-4.709L7.181,27.618c-0.421,1.695-1.795,4.036-3.07,5.23
		l-0.12,0.111c-1.275,1.193-1.351,3.204-0.172,4.494l9.456,10.323C14.456,49.062,16.476,49.172,17.788,48.019"/>
</g>
</svg>
