<?xml version="1.0" encoding="utf-8"?>
<!-- Generator: Adobe Illustrator 17.0.0, SVG Export Plug-In . SVG Version: 6.00 Build 0)  -->
<!DOCTYPE svg PUBLIC "-//W3C//DTD SVG 1.1//EN" "http://www.w3.org/Graphics/SVG/1.1/DTD/svg11.dtd">
<svg version="1.1" id="Capa_1" xmlns="http://www.w3.org/2000/svg" xmlns:xlink="http://www.w3.org/1999/xlink" x="0px" y="0px"
	 width="72px" height="72px" viewBox="0 0 72 72" enable-background="new 0 0 72 72" xml:space="preserve">
<g>
	<path fill="#0E0F0F" d="M15.547,63.572c7.862-1.059,12.875-6.241,14.965-13.062c0.292-0.003,0.574-0.025,0.846-0.069
		c2.102,4.64,2.013,9.48-2.039,13.765c-2.749,2.907,1.486,7.478,4.25,4.553c6.536-6.919,6.854-15.655,2.153-23.411
		c0.75-5.276,0.392-10.82-1.344-15.88c0.167-0.221,0.318-0.472,0.437-0.759c2.384-5.709,4.328-11.5,5.92-17.477
		c0.104-0.385,0.134-0.75,0.11-1.09c0.715,0.65,1.653,1.061,2.693,1.097c2.331,0.081,4.288-1.745,4.366-4.077
		c0.08-2.33-1.743-4.284-4.076-4.364c-2.331-0.08-4.287,1.745-4.366,4.076c-0.012,0.354,0.025,0.698,0.096,1.029
		c-1.582-1.134-4.128-0.946-4.769,1.47c-1.415,5.316-3.112,10.482-5.146,15.576c-0.567-0.062-1.167-0.03-1.796,0.118
		c-1.006,0.24-1.972,0.854-2.724,1.674c-5.932,2.579-11.55,7.19-8.902,14.422c0.585,1.59,1.956,2.732,3.756,2.305
		c1.504-0.36,2.889-2.157,2.303-3.755c-0.592-1.615-0.838-3.15,0.528-4.45c0.565-0.537,1.184-0.999,1.836-1.41
		c0.937,3.677,1.029,7.386,0.482,11.228c-0.056,0.385-0.046,0.762,0.012,1.131c-0.906,6.081-4.393,10.407-11.043,11.3
		C10.125,58.049,11.601,64.104,15.547,63.572z"/>
	<circle fill="#0E0F0F" cx="25.262" cy="19.291" r="5.347"/>
	<path fill="#0E0F0F" d="M62.534,10.555H47.403l0.088,0.269l1.728,8.876l-0.021,0.081l0.039,0.009l1.202,6.181h9.099l3.603-15.282
		h-0.003l0.034-0.133h-0.594l-0.039-0.009L62.534,10.555z M60.571,18.885l-0.52-1.255l1.281-1.972L60.571,18.885z M51.693,19.702
		l-1.275-2.098l1.29-2.122l0.009,0.016l0.026-0.046l1.268,2.084L51.693,19.702z M53.288,17.98l1.365,2.243l-1.301,2.135
		l-1.363-2.243L53.288,17.98z M52.018,15.001l1.293-2.125l1.311,2.156l-1.293,2.126L52.018,15.001z M54.895,15.482l0.009,0.016
		l0.027-0.046l1.266,2.082l-1.318,2.168l-1.275-2.098L54.895,15.482z M56.496,17.943l1.341,2.205l-1.299,2.135l-1.341-2.205
		L56.496,17.943z M55.205,15.002l1.315-2.162l1.336,2.193l-1.315,2.164L55.205,15.002z M58.128,15.481l0.008,0.016l0.027-0.046
		l1.268,2.084l-1.32,2.168l-1.275-2.098L58.128,15.481z M58.438,15.001l1.299-2.135l1.38,2.268l-1.341,2.064L58.438,15.001z
		 M58.383,20.154l1.314-2.158l0.69,1.667l-0.644,2.729L58.383,20.154z M58.321,25.349l1.187-1.952l-0.46,1.952H58.321z
		 M58.066,24.865l-1.276-2.097l1.319-2.168l1.276,2.098L58.066,24.865z M55.18,25.349l1.318-2.166l1.319,2.166H55.18z
		 M54.926,24.865l-1.275-2.097l1.318-2.168l1.276,2.098L54.926,24.865z M51.949,25.349l1.364-2.241l1.362,2.241H51.949z
		 M50.723,24.172l0.717,1.177h-0.487L50.723,24.172z M50.445,22.726l1.292-2.125l1.277,2.098l-1.318,2.168l-1.228-2.016
		L50.445,22.726z M49.79,19.368l0.348-1.327l1.304,2.146l-1.13,1.859L49.79,19.368z M49.266,16.673l0.494,0.958l-0.177,0.677
		L49.266,16.673z M49.686,12.404L48.74,13.96l-0.304-1.556C48.436,12.404,49.686,12.404,49.686,12.404z M50.033,12.73l1.402,2.303
		l-1.346,2.214l-1.141-2.206l-0.077-0.4L50.033,12.73z M50.327,12.404l-0.152,0.093l0.057-0.092h0.095V12.404z M53.051,12.404
		l-1.308,2.148l-0.008-0.015l-0.027,0.046l-1.326-2.179C50.382,12.404,53.051,12.404,53.051,12.404z M53.513,12.404l-0.125,0.074
		l-0.125-0.074H53.513z M56.24,12.403l-1.308,2.149l-0.008-0.015l-0.028,0.046l-1.324-2.182l0,0h2.668V12.403z M56.746,12.405
		l-0.148,0.089l-0.149-0.089H56.746z M59.47,12.405l-1.306,2.148l-0.009-0.015l-0.027,0.046l-1.326-2.179
		C56.803,12.405,59.47,12.405,59.47,12.405z M59.948,12.405l-0.133,0.08l-0.132-0.08H59.948z M62.1,12.405l-0.519,2.2l-0.086-0.055
		l-0.097,0.149l-1.394-2.294C60.002,12.405,62.1,12.405,62.1,12.405z"/>
</g>
<g>
	<path fill="#231F20" d="M62.775,58.008c0-1.151-0.592-1.567-1.679-1.567h-3.263v3.15h3.263
		C62.055,59.591,62.775,59.031,62.775,58.008z"/>
	<path fill="#231F20" d="M61.367,61.03h-3.534v3.567h3.534c1.216,0,1.919-0.656,1.919-1.808C63.286,61.67,62.583,61.03,61.367,61.03
		z"/>
	<path fill="#231F20" d="M49.498,49.748V71.25H71V49.748H49.498z M61.08,66.228h-5.245V54.81h5.549c2.047,0,3.39,0.928,3.39,2.831
		c0,1.151-0.592,1.982-1.631,2.431v0.031c1.392,0.305,2.143,1.392,2.143,2.942C65.286,64.836,64.039,66.228,61.08,66.228z"/>
</g>
</svg>
