<?xml version="1.0" encoding="utf-8"?>
<!-- Generator: Adobe Illustrator 17.0.0, SVG Export Plug-In . SVG Version: 6.00 Build 0)  -->
<!DOCTYPE svg PUBLIC "-//W3C//DTD SVG 1.1//EN" "http://www.w3.org/Graphics/SVG/1.1/DTD/svg11.dtd">
<svg version="1.1" id="Capa_1" xmlns="http://www.w3.org/2000/svg" xmlns:xlink="http://www.w3.org/1999/xlink" x="0px" y="0px"
	 width="72px" height="72px" viewBox="0 0 72 72" enable-background="new 0 0 72 72" xml:space="preserve">
<g>
	<g>
		<path d="M43.778,50.913c0.182,5.718,0.361,11.384,0.543,17.116c-0.241,0.015-0.453,0.04-0.665,0.04
			c-5.147,0.002-10.294-0.005-15.441,0.013c-0.506,0.002-0.713-0.114-0.826-0.647c-0.532-2.525-1.107-5.041-1.695-7.553
			c-1.058-4.521-2.154-9.033-3.198-13.558c-0.373-1.616-1.336-2.634-2.853-3.205c-3.819-1.439-7.635-2.888-11.452-4.333
			c-0.138-0.052-0.277-0.101-0.415-0.155c-1.567-0.624-1.993-1.451-1.53-3.068c0.724-2.529,1.471-5.052,2.207-7.578
			c0.667-2.29,1.317-4.585,2.006-6.868c0.445-1.476,1.204-2.724,2.829-3.128c3.237-0.805,5.521,1.465,4.739,4.77
			c-0.605,2.559-1.329,5.09-2.018,7.629c-0.473,1.743-0.173,2.354,1.537,2.961c12.628,4.484,25.256,8.969,37.887,13.444
			c2.173,0.77,4.364,1.485,6.541,2.244c0.461,0.161,0.918,0.363,1.332,0.618c1.467,0.902,1.883,2.414,1.126,3.96
			c-0.918,1.872-2.891,2.924-4.898,2.345c-3.582-1.033-7.123-2.208-10.674-3.344C47.141,52.066,45.436,51.47,43.778,50.913z"/>
		<path d="M33.724,36.258c-4.58-0.044-8.377-3.753-8.328-8.136c0.049-4.405,3.917-8.084,8.445-8.033
			c4.529,0.051,8.212,3.743,8.169,8.189C41.968,32.688,38.216,36.301,33.724,36.258z"/>
		<path d="M23.593,9.725c-0.013,3.525-2.874,6.301-6.463,6.271c-3.668-0.031-6.295-2.656-6.293-6.29
			c0.001-3.719,2.606-6.305,6.335-6.289C20.792,3.433,23.606,6.197,23.593,9.725z"/>
	</g>
</g>
</svg>
