<?xml version="1.0" encoding="utf-8"?>
<!-- Generator: Adobe Illustrator 17.0.0, SVG Export Plug-In . SVG Version: 6.00 Build 0)  -->
<!DOCTYPE svg PUBLIC "-//W3C//DTD SVG 1.1//EN" "http://www.w3.org/Graphics/SVG/1.1/DTD/svg11.dtd">
<svg version="1.1" id="Capa_1" xmlns="http://www.w3.org/2000/svg" xmlns:xlink="http://www.w3.org/1999/xlink" x="0px" y="0px"
	 width="72px" height="72px" viewBox="0 0 72 72" enable-background="new 0 0 72 72" xml:space="preserve">
<g>
	<g>
		<path d="M42.733,46.694c-1.171,1.753-2.348,3.502-3.513,5.259c-3.411,5.146-6.813,10.298-10.231,15.439
			c-0.372,0.56-0.772,1.122-1.255,1.583c-1.06,1.012-2.549,1.08-3.722,0.254c-1.116-0.786-1.559-2.164-1.054-3.471
			c0.192-0.497,0.494-0.959,0.792-1.407c4.19-6.306,8.375-12.615,12.602-18.896c0.505-0.75,0.588-1.405,0.363-2.256
			c-1.303-4.918-2.568-9.847-3.825-14.778c-0.529-2.075,0.218-3.317,2.344-3.717c5.887-1.106,11.786-2.151,17.68-3.223
			c0.434-0.079,0.863-0.182,1.582-0.336c-8.327-5.507-16.43-10.866-24.689-16.328c-0.334,0.77-0.618,1.451-0.925,2.123
			c-0.433,0.948-1.054,1.642-2.203,1.182c-0.972-0.39-1.168-1.555-0.507-2.664c0.207-0.348,0.447-0.676,0.676-1.011
			c1.407-2.056,2.568-2.314,4.635-0.96c5.089,3.334,10.165,6.686,15.245,10.033c3.725,2.455,7.44,4.925,11.177,7.362
			c1.14,0.743,1.966,1.628,1.688,3.091c-0.281,1.48-1.403,1.969-2.736,2.202c-3.504,0.613-7.005,1.247-10.506,1.878
			c-0.52,0.094-1.034,0.216-1.657,0.347c0.936,3.748,1.835,7.367,2.745,10.983c0.538,2.14,0.999,4.306,1.665,6.407
			c0.776,2.448,0.617,4.873,0.28,7.347c-0.634,4.643-1.21,9.294-1.797,13.944c-0.267,2.113-1.603,3.322-3.484,3.111
			C42.386,70,41.31,68.579,41.545,66.55c0.622-5.371,1.365-10.729,1.953-16.104c0.131-1.2-0.18-2.448-0.288-3.673
			C43.053,46.747,42.893,46.721,42.733,46.694z"/>
		<path d="M38.994,18.223c-0.027,2.753-2.254,4.95-5.022,4.955c-2.809,0.004-5.118-2.296-5.085-5.064
			c0.033-2.692,2.341-4.959,5.063-4.97C36.762,13.132,39.022,15.408,38.994,18.223z"/>
	</g>
</g>
</svg>
