<?xml version="1.0" encoding="utf-8"?>
<!-- Generator: Adobe Illustrator 17.0.0, SVG Export Plug-In . SVG Version: 6.00 Build 0)  -->
<!DOCTYPE svg PUBLIC "-//W3C//DTD SVG 1.1//EN" "http://www.w3.org/Graphics/SVG/1.1/DTD/svg11.dtd">
<svg version="1.1" id="Capa_1" xmlns="http://www.w3.org/2000/svg" xmlns:xlink="http://www.w3.org/1999/xlink" x="0px" y="0px"
	 width="72px" height="72px" viewBox="0 0 72 72" enable-background="new 0 0 72 72" xml:space="preserve">
<g>
	<path fill="none" d="M64.012,36.277l-5.084-14.335l1.286-5.61c-3.328-4.084-7.66-7.314-12.615-9.321l-7.736-0.987l-3.51-1.292
		c-0.174-0.003-0.346-0.013-0.52-0.013c-7.244,0-13.918,2.469-19.241,6.6l-2.035,3.262l-7.848,9.738
		c-1.493,3.659-2.324,7.657-2.324,11.848c0,2.015,0.199,3.984,0.562,5.894l0.211-6.694l9.114,3.139l5.825,15.015l-6.103,5.243
		c5.661,5.473,13.36,8.852,21.839,8.852c4.863,0,9.469-1.113,13.582-3.093v-2.64l-8.002,3.418l-8.139-8.48L43.838,44.93
		l14.114,1.738l-0.57,3.08h6.794c1.851-3.85,2.949-8.128,3.081-12.647L64.012,36.277z M39.035,31.031l-16.54-3.142l-0.503-14.244
		l15.115-5.437l10.821,10.093L39.035,31.031z"/>
	<polygon points="21.992,13.645 22.495,27.889 39.035,31.031 47.928,18.301 37.107,8.208 	"/>
	<polygon points="43.838,44.93 33.274,56.821 41.413,65.301 49.415,61.883 49.415,49.748 57.382,49.748 57.952,46.668 	"/>
	<path d="M35.833,67.616c-8.479,0-16.178-3.379-21.839-8.852l6.103-5.243l-5.825-15.015l-9.114-3.139l-0.211,6.694
		c-0.363-1.91-0.562-3.879-0.562-5.894c0-4.191,0.831-8.189,2.324-11.848l7.848-9.738l2.035-3.262
		c5.323-4.131,11.997-6.6,19.241-6.6c0.174,0,0.346,0.01,0.52,0.013l3.51,1.292l7.736,0.987c4.955,2.007,9.287,5.237,12.615,9.321
		l-1.286,5.61l5.084,14.335l3.246,0.824c-0.133,4.519-1.23,8.797-3.081,12.647h1.927c1.864-4.147,2.909-8.741,2.909-13.582
		c0-18.325-14.855-33.178-33.179-33.178c-18.324,0-33.179,14.854-33.179,33.179c0,4.103,0.75,8.03,2.112,11.658l-0.008,0.22
		l0.18,0.218c4.836,12.34,16.841,21.082,30.895,21.082c4.841,0,9.434-1.045,13.581-2.909v-1.913
		C45.301,66.503,40.695,67.616,35.833,67.616z"/>
	<path fill="#231F20" d="M66.104,49.748h-1.927h-6.794h-7.967v12.135v2.64v1.913v4.813h21.502V49.748H66.104z M66.174,66.227h-1.903
		v-8.812h-0.032l-3.166,8.812h-1.646l-3.166-8.812h-0.032v8.812h-1.902V54.809h-0.001h0.001h2.813l3.15,8.939h0.031l3.07-8.939
		h2.783V66.227z"/>
	
		<line fill="none" stroke="#FFFFFF" stroke-width="0" stroke-linecap="round" stroke-linejoin="round" x1="54.327" y1="54.809" x2="54.326" y2="54.809"/>
</g>
</svg>
