<?xml version="1.0" encoding="utf-8"?>
<!-- Generator: Adobe Illustrator 17.0.0, SVG Export Plug-In . SVG Version: 6.00 Build 0)  -->
<!DOCTYPE svg PUBLIC "-//W3C//DTD SVG 1.1//EN" "http://www.w3.org/Graphics/SVG/1.1/DTD/svg11.dtd">
<svg version="1.1" id="Capa_1" xmlns="http://www.w3.org/2000/svg" xmlns:xlink="http://www.w3.org/1999/xlink" x="0px" y="0px"
	 width="72px" height="72px" viewBox="0 0 72 72" enable-background="new 0 0 72 72" xml:space="preserve">
<g>
	<path fill="none" d="M63.226,35.158l-5.084-14.335l1.286-5.61c-3.328-4.084-7.66-7.314-12.615-9.321l-7.736-0.987l-3.51-1.292
		C35.393,3.61,35.221,3.6,35.047,3.6c-7.244,0-13.918,2.469-19.241,6.6l-2.035,3.262L5.923,23.2
		c-1.493,3.659-2.324,7.657-2.324,11.848c0,2.015,0.199,3.984,0.562,5.894l0.211-6.694l9.114,3.139l5.825,15.015l-6.103,5.243
		c5.661,5.473,13.36,8.852,21.839,8.852c4.863,0,9.469-1.113,13.582-3.093v-2.64l-8.002,3.418l-8.139-8.48l10.564-11.891
		l14.114,1.738l-0.57,3.08h6.794c1.851-3.85,2.949-8.128,3.081-12.647L63.226,35.158z M38.249,29.912l-16.54-3.142l-0.503-14.244
		l15.115-5.437l10.821,10.093L38.249,29.912z"/>
	<polygon points="21.206,12.526 21.709,26.77 38.249,29.912 47.142,17.182 36.321,7.089 	"/>
	<polygon points="43.052,43.811 32.488,55.702 40.627,64.182 48.629,60.764 48.629,48.629 56.596,48.629 57.166,45.549 	"/>
	<path d="M35.047,66.497c-8.479,0-16.178-3.379-21.839-8.852l6.103-5.243l-5.825-15.015l-9.114-3.139l-0.211,6.694
		c-0.363-1.91-0.562-3.879-0.562-5.894c0-4.191,0.831-8.189,2.324-11.848l7.848-9.738l2.035-3.262
		c5.323-4.131,11.997-6.6,19.241-6.6c0.174,0,0.346,0.01,0.52,0.013l3.51,1.292l7.736,0.987c4.955,2.007,9.287,5.237,12.615,9.321
		l-1.286,5.61l5.084,14.335l3.246,0.824c-0.133,4.519-1.23,8.797-3.081,12.647h1.927c1.864-4.147,2.909-8.741,2.909-13.582
		c0-18.325-14.855-33.178-33.179-33.178c-18.324,0-33.179,14.854-33.179,33.179c0,4.103,0.75,8.03,2.112,11.658l-0.008,0.22
		l0.18,0.218c4.836,12.34,16.841,21.082,30.895,21.082c4.841,0,9.435-1.045,13.581-2.909v-1.913
		C44.516,65.384,39.91,66.497,35.047,66.497z"/>
	<path fill="#231F20" d="M65.318,48.629h-1.927h-6.794h-7.967v12.135v2.64v1.913v4.813h21.502V48.629H65.318z M64.206,65.108h-2.031
		l-2.286-8.731h-0.032l-2.335,8.731h-2.063L52.452,53.69h2.031l2.063,8.731h0.032l2.303-8.731h2.047l2.239,8.731h0.031l2.127-8.731
		h2.031L64.206,65.108z"/>
</g>
</svg>
