<?xml version="1.0" encoding="utf-8"?>
<!-- Generator: Adobe Illustrator 17.0.0, SVG Export Plug-In . SVG Version: 6.00 Build 0)  -->
<!DOCTYPE svg PUBLIC "-//W3C//DTD SVG 1.1//EN" "http://www.w3.org/Graphics/SVG/1.1/DTD/svg11.dtd">
<svg version="1.1" id="Layer_1" xmlns="http://www.w3.org/2000/svg" xmlns:xlink="http://www.w3.org/1999/xlink" x="0px" y="0px"
	 width="72px" height="72px" viewBox="-4 -4 72 72" enable-background="new -4 -4 72 72" xml:space="preserve">
<g>
	<g>
		<path fill="#231F20" d="M59.702,33.52l-0.57-0.141l-2.092,5.879l-2.721-0.966l2.055-5.77l-0.59-0.223
			c-1.616-0.614-3.255-1.382-4.875-2.28l-0.562-0.308l-2.757,4.876l-2.516-1.42l2.818-4.984l-0.483-0.337
			c-1.795-1.25-3.531-2.678-5.161-4.246l-0.453-0.436l-3.977,3.948l-2.039-2.051l4.013-3.98l-0.394-0.453
			c-1.401-1.635-2.677-3.376-3.792-5.176l-0.301-0.483l-5.28,2.408l-1.199-2.628l5.081-2.319l-0.29-0.594
			c-0.711-1.468-1.326-2.982-1.827-4.5l-0.185-0.561l-6.816,1.586l-0.656-2.813l6.722-1.565l-0.118-0.611
			c-0.135-0.708-0.288-1.535-0.383-2.366L30.28,0.38l-0.629,0.058c-7.326,0.679-14.233,3.928-19.446,9.145
			C4.991,14.793,1.744,21.701,1.06,29.031l-0.056,0.63l0.624,0.071c0.996,0.115,2.059,0.304,3.341,0.599l0.561,0.126l2.356-6.637
			l2.724,0.97l-2.311,6.5l0.607,0.215c1.65,0.594,3.266,1.312,4.809,2.13l0.554,0.298l3.073-5.441l2.515,1.42l-3.11,5.512
			l0.496,0.335c1.773,1.186,3.495,2.548,5.124,4.05l0.455,0.42l4.296-4.263l2.03,2.051l-4.295,4.267l0.408,0.457
			c1.42,1.59,2.716,3.274,3.846,5.002l0.304,0.464l5.489-2.508l1.208,2.631l-5.205,2.378l0.31,0.602
			c0.723,1.401,1.349,2.858,1.92,4.453l0.196,0.538l6.806-1.584l0.655,2.813l-6.623,1.542l0.138,0.626
			c0.267,1.177,0.457,2.255,0.581,3.296l0.074,0.624l0.628-0.06c7.332-0.679,14.245-3.928,19.455-9.141
			c5.217-5.214,8.465-12.122,9.137-19.45l0.059-0.631l-0.628-0.071C62.455,34.13,61.215,33.895,59.702,33.52z"/>
	</g>
	<g>
		<path fill="#231F20" d="M33.157,2.419l0.195,0.987l3.879-0.903l0.655,2.816l-3.787,0.877l0.231,0.676
			c0.445,1.302,0.992,2.62,1.631,3.928l0.275,0.564l4.82-2.196l1.196,2.63l-4.593,2.094l0.408,0.628
			c0.989,1.531,2.007,2.906,3.11,4.207l0.45,0.534l3.69-3.662l2.037,2.048l-3.731,3.705l0.476,0.458
			c1.465,1.393,2.969,2.642,4.478,3.715l0.581,0.416l2.53-4.472l2.516,1.418l-2.59,4.589l0.569,0.316
			c1.438,0.806,2.929,1.509,4.431,2.088l0.617,0.237l1.603-4.485l2.721,0.97l-1.562,4.392l0.699,0.167
			c1.054,0.248,1.999,0.425,2.887,0.541l0.754,0.098l-0.022-0.759c-0.246-8.11-3.534-15.733-9.261-21.464
			c-5.722-5.723-13.349-9.011-21.464-9.258l-0.755-0.022l0.094,0.746C32.975,1.5,33.07,1.967,33.157,2.419z M62.668,27.31
			c0.152,0.988,0.256,1.992,0.312,2.999c-0.413-0.068-0.836-0.15-1.289-0.248L62.668,27.31z M35.024,1.69l-0.661,0.152
			c-0.015-0.067-0.026-0.134-0.037-0.2C34.558,1.658,34.79,1.672,35.024,1.69z"/>
	</g>
	<g>
		<path fill="#231F20" d="M31.842,60.283l-0.141-0.639l-3.993,0.929l-0.657-2.813l3.783-0.877l-0.262-0.69
			c-0.541-1.422-1.106-2.69-1.728-3.875l-0.284-0.538l-4.679,2.132l-1.199-2.631l4.367-1.992l-0.433-0.631
			c-0.971-1.43-2.031-2.79-3.144-4.042l-0.453-0.509l-3.401,3.379l-2.04-2.048l3.404-3.381l-0.496-0.457
			c-1.398-1.286-2.887-2.475-4.428-3.526l-0.582-0.397l-2.228,3.943l-2.516-1.42l2.274-4.035l-0.585-0.308
			c-1.399-0.743-2.868-1.393-4.362-1.936l-0.613-0.226l-1.34,3.76l-2.721-0.969l1.286-3.618l-0.72-0.157
			c-0.836-0.18-1.584-0.314-2.284-0.407l-0.751-0.104l0.02,0.763c0.253,8.109,3.544,15.73,9.268,21.461
			c5.73,5.73,13.35,9.019,21.457,9.259l0.759,0.024l-0.101-0.751C32.22,62.144,32.068,61.298,31.842,60.283z"/>
	</g>
</g>
</svg>
