<?xml version="1.0" encoding="utf-8"?>
<!-- Generator: Adobe Illustrator 17.0.0, SVG Export Plug-In . SVG Version: 6.00 Build 0)  -->
<!DOCTYPE svg PUBLIC "-//W3C//DTD SVG 1.1//EN" "http://www.w3.org/Graphics/SVG/1.1/DTD/svg11.dtd">
<svg version="1.1" id="Capa_1" xmlns="http://www.w3.org/2000/svg" xmlns:xlink="http://www.w3.org/1999/xlink" x="0px" y="0px"
	 width="72px" height="72px" viewBox="0 0 72 72" enable-background="new 0 0 72 72" xml:space="preserve">
<g>
	<polygon fill="none" points="59.886,63.384 59.855,63.384 56.705,54.445 53.891,54.445 53.891,65.863 55.793,65.863 55.793,57.051 
		55.825,57.051 58.991,65.863 60.638,65.863 63.804,57.051 63.836,57.051 63.836,65.863 65.739,65.863 65.739,54.445 62.956,54.445 
			"/>
	<path d="M57.14,48.174c0.021-1.625-0.524-2.873-1.695-3.976c-2.792-2.631-5.536-5.314-8.28-7.996
		c-0.365-0.356-0.732-0.791-0.897-1.26c-1.128-3.198-2.23-6.406-3.257-9.638c-0.122-0.385,0.118-1.117,0.44-1.374
		c1.999-1.593,4.081-3.082,6.111-4.637c0.836-0.641,1.707-1.278,2.393-2.064c0.88-1.009,0.977-2.234,0.372-3.46
		c-0.599-1.215-1.596-2.023-2.938-1.814c-1.03,0.161-2.093,0.636-2.959,1.235c-3.225,2.231-6.284,4.711-9.576,6.831
		c-3.488,2.247-7.031,4.382-9.981,7.347c-0.148,0.149-0.332,0.261-0.599,0.467c-0.422-0.921-0.811-1.746-1.179-2.58
		c-0.689-1.563-1.809-2.429-3.588-2.39c-0.393,0.009-0.893-0.18-1.172-0.453c-1.396-1.365-2.619-2.835-3.001-4.86
		c-0.368-1.946-0.809-3.883-1.323-5.796c-0.561-2.088-1.551-3.955-3.45-5.148c-1.535-0.964-3.154-1.083-4.755-0.131
		C6.249,7.403,5.4,8.747,5.426,10.61c0.037,2.703,1.667,4.419,3.732,5.72c1.932,1.217,4.007,2.218,6.056,3.238
		c1.766,0.878,2.776,2.404,3.686,4.027c0.139,0.248,0.12,0.705-0.017,0.965c-0.636,1.212-0.485,2.371,0.053,3.558
		c0.909,2.007,1.78,4.031,2.686,6.039c1.424,3.155,3.746,3.632,6.365,1.315c1.675-1.481,3.342-2.97,5.173-4.598
		c0.519,1.933,0.886,3.697,1.473,5.383c0.779,2.234,0.811,4.46,0.462,6.76c-0.31,2.047-0.58,4.108-0.701,6.172
		c-0.068,1.157-0.526,1.955-1.303,2.748c-3.023,3.088-6.007,6.216-8.978,9.354c-0.475,0.502-0.938,1.084-1.189,1.715
		c-0.701,1.765-0.042,3.687,1.479,4.645c1.592,1.003,3.441,0.836,4.837-0.591c3.578-3.657,7.078-7.39,10.673-11.029
		c1.288-1.303,1.898-2.785,2.051-4.578c0.236-2.759,0.587-5.508,0.924-8.58c2.055,1.975,3.928,3.706,5.702,5.532
		c0.246,0.253,0.448,0.609,0.586,0.98h7.738C57.043,49.009,57.134,48.612,57.14,48.174z"/>
	<path d="M31.912,20.137c3.641,0.055,6.683-2.919,6.727-6.576c0.044-3.644-2.945-6.671-6.603-6.687
		c-3.653-0.016-6.665,2.981-6.663,6.629C25.377,17.091,28.326,20.083,31.912,20.137z"/>
	<path fill="#231F20" d="M56.914,49.385h-7.738H48.98v21.502h21.502V49.385H56.914z M65.739,65.863h-1.903v-8.812h-0.032
		l-3.166,8.812h-1.647l-3.166-8.812h-0.032v8.812h-1.902V54.445h2.814l3.15,8.939h0.031l3.07-8.939h2.783V65.863z"/>
</g>
</svg>
