<?xml version="1.0" encoding="utf-8"?>
<!-- Generator: Adobe Illustrator 17.0.0, SVG Export Plug-In . SVG Version: 6.00 Build 0)  -->
<!DOCTYPE svg PUBLIC "-//W3C//DTD SVG 1.1//EN" "http://www.w3.org/Graphics/SVG/1.1/DTD/svg11.dtd">
<svg version="1.1" id="Capa_1" xmlns="http://www.w3.org/2000/svg" xmlns:xlink="http://www.w3.org/1999/xlink" x="0px" y="0px"
	 width="72px" height="72px" viewBox="0 0 72 72" enable-background="new 0 0 72 72" xml:space="preserve">
<g>
	<polygon fill="none" points="63.49,62.566 63.459,62.566 61.22,53.835 59.173,53.835 56.87,62.566 56.838,62.566 54.775,53.835 
		52.744,53.835 55.751,65.253 57.814,65.253 60.149,56.522 60.181,56.522 62.467,65.253 64.498,65.253 67.648,53.835 65.617,53.835 
			"/>
	<path d="M57.081,47.564c0.021-1.625-0.524-2.873-1.695-3.976c-2.792-2.631-5.536-5.314-8.28-7.996
		c-0.365-0.356-0.732-0.791-0.897-1.26c-1.128-3.198-2.23-6.406-3.257-9.638c-0.122-0.385,0.118-1.117,0.44-1.374
		c1.999-1.593,4.081-3.082,6.111-4.637c0.836-0.641,1.707-1.278,2.393-2.064c0.88-1.009,0.977-2.234,0.372-3.46
		c-0.599-1.215-1.596-2.023-2.938-1.814c-1.03,0.161-2.093,0.636-2.959,1.235c-3.225,2.231-6.284,4.711-9.576,6.831
		c-3.488,2.247-7.031,4.382-9.981,7.347c-0.148,0.149-0.332,0.261-0.599,0.467c-0.422-0.921-0.811-1.746-1.179-2.58
		c-0.689-1.563-1.809-2.429-3.588-2.39c-0.393,0.009-0.893-0.18-1.172-0.453c-1.396-1.365-2.619-2.835-3.001-4.86
		c-0.368-1.946-0.809-3.883-1.323-5.796c-0.561-2.088-1.551-3.955-3.45-5.148c-1.535-0.964-3.154-1.083-4.755-0.131
		C6.19,6.793,5.341,8.137,5.367,10c0.037,2.703,1.667,4.419,3.732,5.72c1.932,1.217,4.007,2.218,6.056,3.238
		c1.766,0.878,2.776,2.404,3.686,4.027c0.139,0.248,0.12,0.705-0.017,0.965c-0.636,1.212-0.485,2.371,0.053,3.558
		c0.909,2.007,1.78,4.031,2.686,6.039c1.424,3.155,3.746,3.632,6.365,1.315c1.675-1.481,3.342-2.97,5.173-4.598
		c0.519,1.933,0.886,3.697,1.473,5.383c0.779,2.234,0.811,4.46,0.462,6.76c-0.31,2.047-0.58,4.108-0.701,6.172
		c-0.068,1.157-0.526,1.955-1.303,2.748c-3.023,3.088-6.007,6.216-8.978,9.354c-0.475,0.502-0.938,1.084-1.189,1.715
		c-0.701,1.765-0.042,3.687,1.479,4.645c1.592,1.003,3.441,0.836,4.837-0.591c3.578-3.657,7.078-7.39,10.673-11.029
		c1.288-1.303,1.898-2.785,2.051-4.578c0.236-2.759,0.587-5.508,0.924-8.58c2.055,1.975,3.928,3.706,5.702,5.531
		c0.247,0.254,0.449,0.609,0.586,0.981h7.738C56.984,48.399,57.075,48.002,57.081,47.564z"/>
	<path d="M31.853,19.527c3.641,0.055,6.683-2.919,6.727-6.576c0.044-3.644-2.945-6.671-6.603-6.687
		c-3.653-0.016-6.665,2.981-6.663,6.629C25.318,16.481,28.267,19.473,31.853,19.527z"/>
	<path fill="#231F20" d="M56.855,48.775h-7.738h-0.196v21.502h21.502V48.775H56.855z M64.498,65.253h-2.031l-2.286-8.731h-0.032
		l-2.335,8.731h-2.063l-3.007-11.418h2.031l2.063,8.731h0.032l2.303-8.731h2.047l2.239,8.731h0.031l2.127-8.731h2.031L64.498,65.253
		z"/>
</g>
</svg>
