<?xml version="1.0" encoding="utf-8"?>
<!-- Generator: Adobe Illustrator 17.0.0, SVG Export Plug-In . SVG Version: 6.00 Build 0)  -->
<!DOCTYPE svg PUBLIC "-//W3C//DTD SVG 1.1//EN" "http://www.w3.org/Graphics/SVG/1.1/DTD/svg11.dtd">
<svg version="1.1" id="Layer_1" xmlns="http://www.w3.org/2000/svg" xmlns:xlink="http://www.w3.org/1999/xlink" x="0px" y="0px"
	 width="72px" height="72px" viewBox="-23 -23 72 72" enable-background="new -23 -23 72 72" xml:space="preserve">
<g>
	<circle cx="-10.995" cy="-12.351" r="7.096"/>
</g>
<rect fill="none" width="26" height="26"/>
<g>
	<path d="M-6.788,9.847l24.117,24.115c-2.969-0.048-5.933-0.568-8.73-1.682c-1.122-0.212-5.638-0.943-7.36,0.779
		c-3.943,3.943-7.545,9.325-9.517,11.298c-1.97,1.97-4.767,1.15-7.411-1.493c-2.646-2.646-3.405-5.499-1.493-7.411
		c1.912-1.912,7.355-5.572,11.301-9.517c1.806-1.809,0.868-6.808,0.724-7.514C-6.235,15.668-6.737,12.76-6.788,9.847z M37.077-9.907
		C25.351-21.636,9.938-17.532,0.343-7.934C-3.211-4.385-5.443-0.019-6.364,4.557l28.97,28.973c4.576-0.921,8.945-3.148,12.494-6.7
		C44.7,17.23,48.812,1.825,37.077-9.907z"/>
</g>
</svg>
