<?xml version="1.0" encoding="utf-8"?>
<!-- Generator: Adobe Illustrator 17.0.0, SVG Export Plug-In . SVG Version: 6.00 Build 0)  -->
<!DOCTYPE svg PUBLIC "-//W3C//DTD SVG 1.1//EN" "http://www.w3.org/Graphics/SVG/1.1/DTD/svg11.dtd">
<svg version="1.1" id="Capa_1" xmlns="http://www.w3.org/2000/svg" xmlns:xlink="http://www.w3.org/1999/xlink" x="0px" y="0px"
	 width="72px" height="72px" viewBox="0 0 72 72" enable-background="new 0 0 72 72" xml:space="preserve">
<g>
	<g>
		<path d="M43.572,50.062c0.779,2.413,1.335,4.366,2.048,6.26c0.45,1.194,0.149,1.763-0.837,2.621
			c-2.505,2.182-4.727,2.43-7.319,0.153c-1.162-1.021-2.667-1.839-4.155-2.258c-2.546-0.716-5.023-0.235-7.297,1.855
			c-0.79-4.405-1.606-8.49-2.224-12.606c-0.273-1.817-1.134-2.839-2.806-3.461c-3.676-1.368-7.295-2.893-10.982-4.231
			c-1.578-0.573-2.068-1.397-1.587-3.018c1.362-4.589,2.609-9.212,3.961-13.804c0.747-2.536,2.477-3.546,4.797-2.943
			c2.102,0.546,2.9,2.126,2.273,4.757c-0.586,2.458-1.25,4.899-1.94,7.33c-0.386,1.362,0.034,2.052,1.391,2.538
			c13.457,4.822,26.894,9.699,40.339,14.556c0.437,0.158,0.895,0.258,1.342,0.389c2.238,0.652,3.24,1.862,2.984,3.602
			c-0.268,1.813-2.407,3.644-4.37,3.315c-2.01-0.337-3.952-1.11-5.904-1.753C50.259,52.366,47.25,51.315,43.572,50.062z"/>
		<path d="M59.904,68.197c-1.033-0.415-2.059-0.696-2.948-1.214c-1.664-0.968-3.273-2.037-4.856-3.134
			c-1.147-0.795-2.177-0.738-3.304,0.03c-1.592,1.085-3.242,2.085-4.854,3.142c-1.985,1.302-4.001,1.315-6.016,0.127
			c-1.66-0.978-3.323-1.962-4.904-3.059c-1.335-0.926-2.485-1.034-3.766,0.09c-1.046,0.917-2.225,1.682-3.342,2.518
			c-2.092,1.567-4.035,1.692-6.295,0.328c-1.65-0.995-3.288-2.015-4.882-3.096c-1.094-0.741-2.002-0.771-3.033,0.153
			c-1.533,1.375-3.161,2.644-4.758,3.947c-0.849,0.693-1.955,1.161-2.54,0.026c-0.326-0.632-0.043-2.027,0.487-2.568
			c1.528-1.56,3.293-2.895,5.015-4.254c1.963-1.549,4.382-1.557,6.698-0.071c1.4,0.898,2.802,1.801,4.14,2.787
			c1.257,0.926,2.367,0.995,3.568-0.101c0.932-0.85,1.962-1.595,2.972-2.355c2.508-1.884,4.921-1.928,7.564-0.188
			c1.445,0.951,2.952,1.815,4.352,2.829c1.15,0.833,2.167,0.784,3.285,0.006c1.475-1.026,2.971-2.023,4.481-2.998
			c2.369-1.529,4.732-1.559,7.085,0.073c1.421,0.985,2.882,1.913,4.297,2.906c1.156,0.812,2.14,0.698,3.242-0.195
			c1.756-1.423,3.55-2.829,5.478-3.994c0.652-0.394,2.075-0.394,2.59,0.058c0.965,0.847,0.234,1.806-0.648,2.454
			c-2.09,1.536-4.159,3.105-6.308,4.555C61.908,67.537,60.914,67.777,59.904,68.197z"/>
		<path d="M42.086,28.599c-0.123,4.235-3.719,7.59-7.986,7.451c-4.275-0.139-7.723-3.695-7.625-7.864
			c0.101-4.278,3.773-7.7,8.131-7.578C38.839,20.726,42.21,24.327,42.086,28.599z"/>
		<path d="M18.691,16.626c-3.487-0.003-5.987-2.542-5.962-6.057c0.025-3.559,2.516-6.008,6.061-5.96
			c3.314,0.045,5.929,2.663,5.955,5.962C24.772,13.953,22.096,16.63,18.691,16.626z"/>
	</g>
</g>
</svg>
